<svg xmlns="http://www.w3.org/2000/svg" width="153.75" viewBox="0 0 153.75 44.25" height="44.25" version="1.0"><defs><clipPath id="a"><path d="M 1.160156 0 L 44.742188 0 L 44.742188 43.511719 L 1.160156 43.511719 Z M 1.160156 0"/></clipPath></defs><g clip-path="url(#a)"><path fill="#FFF" d="M 44.726562 20.117188 C 44.726562 20.101562 44.726562 20.085938 44.71875 20.070312 C 44.71875 20.070312 44.71875 20.070312 44.71875 20.066406 L 40.375 8.703125 C 40.375 8.699219 40.375 8.699219 40.371094 8.699219 C 40.367188 8.679688 40.355469 8.664062 40.339844 8.652344 L 30.789062 1.082031 C 30.773438 1.070312 30.753906 1.0625 30.734375 1.058594 C 30.734375 1.058594 30.734375 1.058594 30.730469 1.058594 L 22.933594 0 C 22.917969 0 22.902344 0 22.886719 0.00390625 L 19.171875 1.058594 L 19.066406 1.058594 C 19.042969 1.058594 19.023438 1.0625 19.007812 1.074219 L 18.914062 1.128906 L 9.765625 3.71875 C 9.761719 3.722656 9.761719 3.722656 9.757812 3.726562 C 9.746094 3.730469 9.734375 3.734375 9.726562 3.746094 C 9.722656 3.746094 9.714844 3.75 9.714844 3.753906 C 9.710938 3.757812 9.707031 3.757812 9.707031 3.761719 L 1.695312 14.121094 C 1.695312 14.125 1.695312 14.128906 1.691406 14.132812 C 1.6875 14.136719 1.6875 14.140625 1.683594 14.144531 C 1.683594 14.148438 1.683594 14.152344 1.679688 14.15625 C 1.679688 14.160156 1.675781 14.167969 1.675781 14.171875 C 1.675781 14.175781 1.675781 14.179688 1.671875 14.183594 L 1.167969 23.296875 C 1.167969 23.304688 1.167969 23.3125 1.171875 23.320312 L 1.910156 27.929688 C 1.910156 27.933594 1.914062 27.9375 1.914062 27.945312 C 1.917969 27.949219 1.914062 27.953125 1.917969 27.957031 C 1.917969 27.957031 1.917969 27.957031 1.917969 27.960938 C 1.917969 27.960938 1.917969 27.960938 1.921875 27.964844 L 5.648438 35.039062 C 5.65625 35.054688 5.664062 35.0625 5.675781 35.074219 L 10.046875 38.925781 C 10.054688 38.933594 10.0625 38.941406 10.070312 38.945312 L 15.128906 42.34375 C 15.144531 42.351562 15.160156 42.359375 15.175781 42.359375 L 23.109375 43.589844 L 23.113281 43.589844 C 23.121094 43.589844 23.125 43.59375 23.132812 43.59375 C 23.140625 43.59375 23.148438 43.589844 23.15625 43.589844 C 23.15625 43.589844 23.15625 43.589844 23.160156 43.589844 C 23.160156 43.589844 23.160156 43.585938 23.160156 43.585938 C 23.160156 43.585938 23.160156 43.585938 23.164062 43.585938 L 36.128906 39.8125 C 36.132812 39.808594 36.136719 39.804688 36.140625 39.804688 C 36.152344 39.796875 36.164062 39.789062 36.171875 39.78125 C 36.175781 39.777344 36.183594 39.777344 36.1875 39.769531 L 44.074219 29.40625 C 44.085938 29.386719 44.09375 29.371094 44.097656 29.351562 C 44.097656 29.347656 44.097656 29.347656 44.097656 29.34375 Z M 43.875 29.246094 L 40.464844 30.105469 L 44.453125 20.773438 Z M 30.03125 27.925781 L 17.460938 23.515625 L 26.941406 16.714844 Z M 26.945312 16.347656 L 17.488281 10.183594 L 29.78125 6.679688 Z M 26.808594 16.53125 L 17.332031 23.328125 L 17.332031 10.351562 Z M 17.105469 23.367188 L 6.347656 18.109375 L 17.105469 10.367188 Z M 19.433594 35.980469 L 9.179688 30.253906 L 17.140625 23.761719 Z M 17.367188 23.722656 L 29.964844 28.140625 L 19.667969 35.996094 Z M 30.101562 28.324219 L 30.765625 37.714844 L 19.875 36.125 Z M 30.25 27.84375 L 27.164062 16.65625 L 37.652344 17.699219 Z M 37.800781 17.886719 L 40.125 30.125 L 30.398438 28.03125 Z M 40.3125 29.882812 L 38.011719 17.78125 L 44.460938 20.171875 Z M 37.816406 17.34375 L 30.214844 6.6875 L 40.128906 8.828125 Z M 37.625 17.46875 L 27.160156 16.425781 L 29.992188 6.769531 Z M 17.367188 9.980469 L 19.148438 1.335938 L 29.632812 6.484375 Z M 17.132812 9.992188 L 9.089844 7.3125 L 18.902344 1.402344 Z M 16.96875 10.179688 L 6.3125 17.851562 L 8.898438 7.492188 Z M 6.0625 17.914062 L 1.953125 14.1875 L 8.609375 7.707031 Z M 8.714844 7.285156 L 2.867188 12.976562 L 9.53125 4.359375 Z M 5.992188 18.15625 L 2.125 27.363281 L 1.90625 14.453125 Z M 6.097656 18.496094 L 8.820312 30.097656 L 2.175781 27.839844 Z M 6.292969 18.335938 L 17.007812 23.574219 L 9.046875 30.066406 Z M 19.292969 36.160156 L 10.230469 38.707031 L 9.121094 30.484375 Z M 19.527344 36.332031 L 22.90625 43.277344 L 10.511719 38.863281 Z M 23.171875 43.304688 L 19.785156 36.339844 L 30.597656 37.917969 Z M 30.988281 37.621094 L 30.324219 28.246094 L 40.011719 30.332031 Z M 39.972656 30.65625 L 36.035156 39.558594 L 31.121094 37.808594 Z M 40.351562 30.367188 L 43.695312 29.527344 L 36.59375 38.859375 Z M 38 17.535156 L 40.289062 9.109375 L 44.417969 19.914062 Z M 30.800781 1.382812 L 39.816406 8.527344 L 30.078125 6.425781 Z M 22.925781 0.230469 L 29.03125 1.058594 L 20.007812 1.058594 Z M 30.585938 1.285156 L 29.859375 6.339844 L 19.554688 1.285156 Z M 9.003906 7.097656 L 9.890625 3.921875 L 18.171875 1.578125 Z M 1.398438 23.296875 L 1.726562 17.347656 L 1.878906 26.304688 Z M 5.839844 34.914062 L 2.816406 29.171875 L 9.398438 38.050781 Z M 2.332031 28.136719 L 8.875 30.355469 L 9.960938 38.425781 Z M 10.949219 39.261719 L 21.957031 43.179688 L 15.234375 42.140625 Z M 30.910156 37.972656 L 35.726562 39.691406 L 23.726562 43.1875 Z M 30.910156 37.972656"/></g><g fill="#FFF"><g><g><path d="M 2.5625 -4.1875 L 2.234375 -4.078125 L 2.5625 -3.96875 L 6.4375 -2.46875 L 6.4375 -1.234375 L 1.078125 -3.625 L 1.078125 -4.546875 L 6.4375 -6.9375 L 6.4375 -5.703125 Z M 2.5625 -4.1875" transform="translate(43.942 26.372)"/></g></g><g><g><path d="M 3.859375 -8.484375 L 3.859375 -6.828125 L 6.46875 -6.828125 L 6.46875 -5.9375 L 3.859375 -5.9375 L 3.859375 -2.21875 C 3.859375 -1.945312 3.890625 -1.722656 3.953125 -1.546875 C 4.023438 -1.378906 4.117188 -1.242188 4.234375 -1.140625 C 4.359375 -1.035156 4.5 -0.960938 4.65625 -0.921875 C 4.8125 -0.878906 4.972656 -0.859375 5.140625 -0.859375 C 5.265625 -0.859375 5.394531 -0.863281 5.53125 -0.875 C 5.664062 -0.894531 5.796875 -0.914062 5.921875 -0.9375 C 6.054688 -0.957031 6.175781 -0.976562 6.28125 -1 C 6.394531 -1.03125 6.488281 -1.050781 6.5625 -1.0625 L 6.734375 -0.234375 C 6.628906 -0.179688 6.507812 -0.128906 6.375 -0.078125 C 6.238281 -0.0351562 6.085938 0 5.921875 0.03125 C 5.753906 0.0625 5.578125 0.0820312 5.390625 0.09375 C 5.210938 0.113281 5.035156 0.125 4.859375 0.125 C 4.546875 0.125 4.257812 0.0820312 4 0 C 3.738281 -0.0820312 3.507812 -0.21875 3.3125 -0.40625 C 3.125 -0.59375 2.972656 -0.832031 2.859375 -1.125 C 2.742188 -1.425781 2.6875 -1.789062 2.6875 -2.21875 L 2.6875 -5.9375 L 0.890625 -5.9375 L 0.890625 -6.828125 L 2.6875 -6.828125 L 2.6875 -8.484375 Z M 3.859375 -8.484375" transform="translate(51.702 26.372)"/></g></g><g><g><path d="M 4.125 0.125 C 3.644531 0.125 3.203125 0.046875 2.796875 -0.109375 C 2.390625 -0.273438 2.039062 -0.503906 1.75 -0.796875 C 1.46875 -1.097656 1.25 -1.453125 1.09375 -1.859375 C 0.9375 -2.265625 0.859375 -2.703125 0.859375 -3.171875 L 0.859375 -3.4375 C 0.859375 -3.988281 0.945312 -4.484375 1.125 -4.921875 C 1.300781 -5.359375 1.535156 -5.726562 1.828125 -6.03125 C 2.117188 -6.332031 2.445312 -6.5625 2.8125 -6.71875 C 3.1875 -6.882812 3.570312 -6.96875 3.96875 -6.96875 C 4.457031 -6.96875 4.882812 -6.878906 5.25 -6.703125 C 5.625 -6.535156 5.929688 -6.300781 6.171875 -6 C 6.421875 -5.695312 6.601562 -5.34375 6.71875 -4.9375 C 6.84375 -4.53125 6.90625 -4.085938 6.90625 -3.609375 L 6.90625 -3.078125 L 2.015625 -3.078125 C 2.035156 -2.765625 2.097656 -2.472656 2.203125 -2.203125 C 2.304688 -1.929688 2.453125 -1.691406 2.640625 -1.484375 C 2.828125 -1.285156 3.050781 -1.125 3.3125 -1 C 3.570312 -0.882812 3.863281 -0.828125 4.1875 -0.828125 C 4.601562 -0.828125 4.972656 -0.910156 5.296875 -1.078125 C 5.617188 -1.242188 5.890625 -1.46875 6.109375 -1.75 L 6.8125 -1.1875 C 6.695312 -1.019531 6.554688 -0.859375 6.390625 -0.703125 C 6.222656 -0.546875 6.023438 -0.40625 5.796875 -0.28125 C 5.578125 -0.15625 5.328125 -0.0546875 5.046875 0.015625 C 4.765625 0.0859375 4.457031 0.125 4.125 0.125 Z M 3.96875 -6 C 3.726562 -6 3.503906 -5.957031 3.296875 -5.875 C 3.085938 -5.789062 2.894531 -5.664062 2.71875 -5.5 C 2.550781 -5.332031 2.410156 -5.125 2.296875 -4.875 C 2.179688 -4.632812 2.101562 -4.359375 2.0625 -4.046875 L 5.734375 -4.046875 L 5.734375 -4.125 C 5.722656 -4.351562 5.679688 -4.578125 5.609375 -4.796875 C 5.535156 -5.023438 5.425781 -5.226562 5.28125 -5.40625 C 5.132812 -5.582031 4.953125 -5.722656 4.734375 -5.828125 C 4.523438 -5.941406 4.269531 -6 3.96875 -6 Z M 3.96875 -6" transform="translate(59.463 26.372)"/></g></g><g><g><path d="M 4.015625 -0.828125 C 4.222656 -0.828125 4.425781 -0.859375 4.625 -0.921875 C 4.820312 -0.984375 5 -1.078125 5.15625 -1.203125 C 5.3125 -1.328125 5.4375 -1.46875 5.53125 -1.625 C 5.625 -1.789062 5.675781 -1.96875 5.6875 -2.15625 L 6.796875 -2.15625 C 6.785156 -1.851562 6.703125 -1.5625 6.546875 -1.28125 C 6.398438 -1.007812 6.195312 -0.769531 5.9375 -0.5625 C 5.675781 -0.351562 5.378906 -0.1875 5.046875 -0.0625 C 4.710938 0.0625 4.367188 0.125 4.015625 0.125 C 3.492188 0.125 3.039062 0.0351562 2.65625 -0.140625 C 2.269531 -0.328125 1.945312 -0.578125 1.6875 -0.890625 C 1.425781 -1.210938 1.226562 -1.578125 1.09375 -1.984375 C 0.96875 -2.398438 0.90625 -2.832031 0.90625 -3.28125 L 0.90625 -3.546875 C 0.90625 -3.992188 0.96875 -4.425781 1.09375 -4.84375 C 1.226562 -5.257812 1.425781 -5.625 1.6875 -5.9375 C 1.945312 -6.25 2.269531 -6.5 2.65625 -6.6875 C 3.039062 -6.875 3.492188 -6.96875 4.015625 -6.96875 C 4.421875 -6.96875 4.789062 -6.898438 5.125 -6.765625 C 5.46875 -6.640625 5.757812 -6.460938 6 -6.234375 C 6.25 -6.015625 6.441406 -5.753906 6.578125 -5.453125 C 6.722656 -5.148438 6.796875 -4.828125 6.796875 -4.484375 L 5.6875 -4.484375 C 5.675781 -4.691406 5.628906 -4.882812 5.546875 -5.0625 C 5.460938 -5.25 5.347656 -5.410156 5.203125 -5.546875 C 5.054688 -5.691406 4.878906 -5.800781 4.671875 -5.875 C 4.460938 -5.957031 4.242188 -6 4.015625 -6 C 3.648438 -6 3.34375 -5.925781 3.09375 -5.78125 C 2.851562 -5.632812 2.65625 -5.441406 2.5 -5.203125 C 2.351562 -4.972656 2.242188 -4.710938 2.171875 -4.421875 C 2.109375 -4.140625 2.078125 -3.847656 2.078125 -3.546875 L 2.078125 -3.28125 C 2.078125 -2.988281 2.109375 -2.691406 2.171875 -2.390625 C 2.242188 -2.097656 2.351562 -1.832031 2.5 -1.59375 C 2.644531 -1.363281 2.84375 -1.175781 3.09375 -1.03125 C 3.34375 -0.894531 3.648438 -0.828125 4.015625 -0.828125 Z M 4.015625 -0.828125" transform="translate(67.223 26.372)"/></g></g><g><g><path d="M 6.765625 0.953125 L 0.984375 0.953125 L 0.984375 0 L 6.765625 0 Z M 6.765625 0.953125" transform="translate(74.983 26.372)"/></g></g><g><g><path d="M 0.875 -3.46875 C 0.875 -3.976562 0.9375 -4.445312 1.0625 -4.875 C 1.195312 -5.300781 1.382812 -5.664062 1.625 -5.96875 C 1.863281 -6.28125 2.148438 -6.523438 2.484375 -6.703125 C 2.816406 -6.878906 3.191406 -6.96875 3.609375 -6.96875 C 4.015625 -6.96875 4.367188 -6.894531 4.671875 -6.75 C 4.984375 -6.613281 5.253906 -6.414062 5.484375 -6.15625 L 5.484375 -9.703125 L 6.640625 -9.703125 L 6.640625 0 L 5.578125 0 L 5.515625 -0.71875 C 5.296875 -0.4375 5.023438 -0.222656 4.703125 -0.078125 C 4.390625 0.0546875 4.019531 0.125 3.59375 0.125 C 3.1875 0.125 2.816406 0.0351562 2.484375 -0.140625 C 2.148438 -0.316406 1.863281 -0.5625 1.625 -0.875 C 1.382812 -1.1875 1.195312 -1.550781 1.0625 -1.96875 C 0.9375 -2.394531 0.875 -2.851562 0.875 -3.34375 Z M 2.046875 -3.34375 C 2.046875 -3.007812 2.082031 -2.691406 2.15625 -2.390625 C 2.226562 -2.097656 2.335938 -1.835938 2.484375 -1.609375 C 2.628906 -1.378906 2.816406 -1.195312 3.046875 -1.0625 C 3.285156 -0.925781 3.566406 -0.859375 3.890625 -0.859375 C 4.085938 -0.859375 4.265625 -0.878906 4.421875 -0.921875 C 4.585938 -0.972656 4.734375 -1.039062 4.859375 -1.125 C 4.992188 -1.21875 5.109375 -1.320312 5.203125 -1.4375 C 5.304688 -1.5625 5.398438 -1.695312 5.484375 -1.84375 L 5.484375 -5.015625 C 5.328125 -5.296875 5.117188 -5.523438 4.859375 -5.703125 C 4.609375 -5.878906 4.289062 -5.96875 3.90625 -5.96875 C 3.570312 -5.96875 3.285156 -5.898438 3.046875 -5.765625 C 2.816406 -5.628906 2.628906 -5.445312 2.484375 -5.21875 C 2.335938 -4.988281 2.226562 -4.722656 2.15625 -4.421875 C 2.082031 -4.117188 2.046875 -3.800781 2.046875 -3.46875 Z M 2.046875 -3.34375" transform="translate(82.744 26.372)"/></g></g><g><g><path d="M 1.28125 -6.828125 L 4.78125 -6.828125 L 4.78125 -1.015625 L 7 -1.015625 L 7 0 L 1.28125 0 L 1.28125 -1.015625 L 3.609375 -1.015625 L 3.609375 -5.8125 L 1.28125 -5.8125 Z M 3.453125 -8.625 C 3.453125 -8.820312 3.507812 -8.984375 3.625 -9.109375 C 3.738281 -9.242188 3.914062 -9.3125 4.15625 -9.3125 C 4.382812 -9.3125 4.554688 -9.242188 4.671875 -9.109375 C 4.796875 -8.984375 4.859375 -8.820312 4.859375 -8.625 C 4.859375 -8.4375 4.796875 -8.28125 4.671875 -8.15625 C 4.554688 -8.03125 4.382812 -7.96875 4.15625 -7.96875 C 3.914062 -7.96875 3.738281 -8.03125 3.625 -8.15625 C 3.507812 -8.28125 3.453125 -8.4375 3.453125 -8.625 Z M 3.453125 -8.625" transform="translate(90.504 26.372)"/></g></g><g><g><path d="M 3.78125 -1.6875 L 3.890625 -1.25 L 4 -1.6875 L 5.90625 -6.828125 L 7.109375 -6.828125 L 4.328125 0 L 3.4375 0 L 0.625 -6.828125 L 1.8125 -6.828125 Z M 3.78125 -1.6875" transform="translate(98.265 26.372)"/></g></g><g><g><path d="M 1.28125 -6.828125 L 4.78125 -6.828125 L 4.78125 -1.015625 L 7 -1.015625 L 7 0 L 1.28125 0 L 1.28125 -1.015625 L 3.609375 -1.015625 L 3.609375 -5.8125 L 1.28125 -5.8125 Z M 3.453125 -8.625 C 3.453125 -8.820312 3.507812 -8.984375 3.625 -9.109375 C 3.738281 -9.242188 3.914062 -9.3125 4.15625 -9.3125 C 4.382812 -9.3125 4.554688 -9.242188 4.671875 -9.109375 C 4.796875 -8.984375 4.859375 -8.820312 4.859375 -8.625 C 4.859375 -8.4375 4.796875 -8.28125 4.671875 -8.15625 C 4.554688 -8.03125 4.382812 -7.96875 4.15625 -7.96875 C 3.914062 -7.96875 3.738281 -8.03125 3.625 -8.15625 C 3.507812 -8.28125 3.453125 -8.4375 3.453125 -8.625 Z M 3.453125 -8.625" transform="translate(106.025 26.372)"/></g></g><g><g><path d="M 5.640625 -1.8125 C 5.640625 -1.945312 5.613281 -2.070312 5.5625 -2.1875 C 5.507812 -2.300781 5.414062 -2.40625 5.28125 -2.5 C 5.144531 -2.59375 4.96875 -2.675781 4.75 -2.75 C 4.539062 -2.832031 4.273438 -2.90625 3.953125 -2.96875 C 3.566406 -3.039062 3.210938 -3.132812 2.890625 -3.25 C 2.566406 -3.363281 2.289062 -3.5 2.0625 -3.65625 C 1.832031 -3.8125 1.65625 -3.992188 1.53125 -4.203125 C 1.40625 -4.421875 1.34375 -4.671875 1.34375 -4.953125 C 1.34375 -5.234375 1.40625 -5.492188 1.53125 -5.734375 C 1.664062 -5.984375 1.847656 -6.195312 2.078125 -6.375 C 2.316406 -6.550781 2.597656 -6.691406 2.921875 -6.796875 C 3.253906 -6.910156 3.613281 -6.96875 4 -6.96875 C 4.425781 -6.96875 4.804688 -6.910156 5.140625 -6.796875 C 5.472656 -6.691406 5.757812 -6.539062 6 -6.34375 C 6.238281 -6.144531 6.421875 -5.914062 6.546875 -5.65625 C 6.671875 -5.40625 6.734375 -5.128906 6.734375 -4.828125 L 5.578125 -4.828125 C 5.578125 -4.972656 5.535156 -5.113281 5.453125 -5.25 C 5.378906 -5.394531 5.273438 -5.519531 5.140625 -5.625 C 5.003906 -5.738281 4.835938 -5.828125 4.640625 -5.890625 C 4.453125 -5.960938 4.238281 -6 4 -6 C 3.75 -6 3.53125 -5.972656 3.34375 -5.921875 C 3.15625 -5.867188 3 -5.796875 2.875 -5.703125 C 2.757812 -5.609375 2.671875 -5.5 2.609375 -5.375 C 2.546875 -5.25 2.515625 -5.125 2.515625 -5 C 2.515625 -4.863281 2.535156 -4.742188 2.578125 -4.640625 C 2.628906 -4.535156 2.71875 -4.4375 2.84375 -4.34375 C 2.96875 -4.257812 3.132812 -4.1875 3.34375 -4.125 C 3.550781 -4.0625 3.816406 -3.992188 4.140625 -3.921875 C 4.554688 -3.835938 4.929688 -3.738281 5.265625 -3.625 C 5.597656 -3.507812 5.878906 -3.367188 6.109375 -3.203125 C 6.335938 -3.046875 6.507812 -2.859375 6.625 -2.640625 C 6.75 -2.421875 6.8125 -2.171875 6.8125 -1.890625 C 6.8125 -1.585938 6.742188 -1.3125 6.609375 -1.0625 C 6.472656 -0.8125 6.28125 -0.597656 6.03125 -0.421875 C 5.789062 -0.253906 5.5 -0.117188 5.15625 -0.015625 C 4.8125 0.078125 4.4375 0.125 4.03125 0.125 C 3.570312 0.125 3.160156 0.0625 2.796875 -0.0625 C 2.429688 -0.1875 2.125 -0.347656 1.875 -0.546875 C 1.625 -0.753906 1.429688 -0.992188 1.296875 -1.265625 C 1.171875 -1.535156 1.109375 -1.816406 1.109375 -2.109375 L 2.28125 -2.109375 C 2.289062 -1.867188 2.351562 -1.664062 2.46875 -1.5 C 2.582031 -1.332031 2.722656 -1.195312 2.890625 -1.09375 C 3.054688 -1 3.238281 -0.929688 3.4375 -0.890625 C 3.632812 -0.847656 3.832031 -0.828125 4.03125 -0.828125 C 4.53125 -0.828125 4.921875 -0.914062 5.203125 -1.09375 C 5.492188 -1.269531 5.640625 -1.507812 5.640625 -1.8125 Z M 5.640625 -1.8125" transform="translate(113.785 26.372)"/></g></g><g><g><path d="M 1.28125 -6.828125 L 4.78125 -6.828125 L 4.78125 -1.015625 L 7 -1.015625 L 7 0 L 1.28125 0 L 1.28125 -1.015625 L 3.609375 -1.015625 L 3.609375 -5.8125 L 1.28125 -5.8125 Z M 3.453125 -8.625 C 3.453125 -8.820312 3.507812 -8.984375 3.625 -9.109375 C 3.738281 -9.242188 3.914062 -9.3125 4.15625 -9.3125 C 4.382812 -9.3125 4.554688 -9.242188 4.671875 -9.109375 C 4.796875 -8.984375 4.859375 -8.820312 4.859375 -8.625 C 4.859375 -8.4375 4.796875 -8.28125 4.671875 -8.15625 C 4.554688 -8.03125 4.382812 -7.96875 4.15625 -7.96875 C 3.914062 -7.96875 3.738281 -8.03125 3.625 -8.15625 C 3.507812 -8.28125 3.453125 -8.4375 3.453125 -8.625 Z M 3.453125 -8.625" transform="translate(121.546 26.372)"/></g></g><g><g><path d="M 0.765625 -3.484375 C 0.765625 -3.972656 0.835938 -4.425781 0.984375 -4.84375 C 1.128906 -5.269531 1.332031 -5.640625 1.59375 -5.953125 C 1.863281 -6.265625 2.191406 -6.507812 2.578125 -6.6875 C 2.960938 -6.875 3.394531 -6.96875 3.875 -6.96875 C 4.351562 -6.96875 4.785156 -6.875 5.171875 -6.6875 C 5.554688 -6.507812 5.882812 -6.265625 6.15625 -5.953125 C 6.425781 -5.640625 6.628906 -5.269531 6.765625 -4.84375 C 6.910156 -4.425781 6.984375 -3.972656 6.984375 -3.484375 L 6.984375 -3.34375 C 6.984375 -2.851562 6.910156 -2.394531 6.765625 -1.96875 C 6.628906 -1.550781 6.425781 -1.1875 6.15625 -0.875 C 5.882812 -0.5625 5.554688 -0.316406 5.171875 -0.140625 C 4.796875 0.0351562 4.367188 0.125 3.890625 0.125 C 3.398438 0.125 2.960938 0.0351562 2.578125 -0.140625 C 2.191406 -0.316406 1.863281 -0.5625 1.59375 -0.875 C 1.332031 -1.1875 1.128906 -1.550781 0.984375 -1.96875 C 0.835938 -2.394531 0.765625 -2.851562 0.765625 -3.34375 Z M 1.9375 -3.34375 C 1.9375 -3.007812 1.972656 -2.6875 2.046875 -2.375 C 2.128906 -2.070312 2.253906 -1.800781 2.421875 -1.5625 C 2.585938 -1.332031 2.789062 -1.148438 3.03125 -1.015625 C 3.28125 -0.890625 3.566406 -0.828125 3.890625 -0.828125 C 4.203125 -0.828125 4.476562 -0.890625 4.71875 -1.015625 C 4.96875 -1.148438 5.171875 -1.332031 5.328125 -1.5625 C 5.492188 -1.800781 5.613281 -2.070312 5.6875 -2.375 C 5.769531 -2.6875 5.8125 -3.007812 5.8125 -3.34375 L 5.8125 -3.484375 C 5.8125 -3.816406 5.769531 -4.132812 5.6875 -4.4375 C 5.613281 -4.738281 5.492188 -5.003906 5.328125 -5.234375 C 5.160156 -5.472656 4.957031 -5.660156 4.71875 -5.796875 C 4.476562 -5.929688 4.195312 -6 3.875 -6 C 3.550781 -6 3.269531 -5.929688 3.03125 -5.796875 C 2.789062 -5.660156 2.585938 -5.472656 2.421875 -5.234375 C 2.253906 -5.003906 2.128906 -4.738281 2.046875 -4.4375 C 1.972656 -4.132812 1.9375 -3.816406 1.9375 -3.484375 Z M 1.9375 -3.34375" transform="translate(129.306 26.372)"/></g></g><g><g><path d="M 2.140625 -6.828125 L 2.234375 -5.828125 C 2.484375 -6.179688 2.785156 -6.457031 3.140625 -6.65625 C 3.503906 -6.851562 3.910156 -6.957031 4.359375 -6.96875 C 4.710938 -6.96875 5.035156 -6.914062 5.328125 -6.8125 C 5.628906 -6.707031 5.878906 -6.546875 6.078125 -6.328125 C 6.285156 -6.117188 6.445312 -5.847656 6.5625 -5.515625 C 6.675781 -5.179688 6.734375 -4.789062 6.734375 -4.34375 L 6.734375 0 L 5.5625 0 L 5.5625 -4.3125 C 5.5625 -4.613281 5.523438 -4.867188 5.453125 -5.078125 C 5.390625 -5.296875 5.289062 -5.46875 5.15625 -5.59375 C 5.019531 -5.726562 4.859375 -5.820312 4.671875 -5.875 C 4.484375 -5.9375 4.265625 -5.96875 4.015625 -5.96875 C 3.617188 -5.96875 3.269531 -5.867188 2.96875 -5.671875 C 2.675781 -5.472656 2.441406 -5.21875 2.265625 -4.90625 L 2.265625 0 L 1.09375 0 L 1.09375 -6.828125 Z M 2.140625 -6.828125" transform="translate(137.067 26.372)"/></g></g><g><g><path d="M 1.125 -5.75 L 1.125 -6.953125 L 6.703125 -4.5625 L 6.703125 -3.640625 L 1.125 -1.25 L 1.125 -2.453125 L 5.21875 -4 L 5.59375 -4.109375 L 5.21875 -4.21875 Z M 1.125 -5.75" transform="translate(144.827 26.372)"/></g></g></g></svg>