<?xml version="1.0" encoding="UTF-8"?><svg xmlns="http://www.w3.org/2000/svg" xmlns:xlink="http://www.w3.org/1999/xlink" contentScriptType="text/ecmascript" width="375" zoomAndPan="magnify" contentStyleType="text/css" viewBox="0 0 375 374.999991" height="374.999991" preserveAspectRatio="xMidYMid meet" version="1.0"><defs><clipPath id="clip-0"><path d="M 0.683594 0 L 374.183594 0 L 374.183594 375 L 0.683594 375 Z M 0.683594 0 " clip-rule="nonzero"/></clipPath></defs><g clip-path="url(#clip-0)"><path fill="rgb(43.528748%, 41.569519%, 66.668701%)" d="M 374.046875 173.082031 C 374.054688 172.945312 374.027344 172.8125 373.984375 172.691406 C 373.980469 172.683594 373.984375 172.675781 373.980469 172.667969 L 336.761719 74.875 C 336.753906 74.859375 336.742188 74.855469 336.734375 74.839844 C 336.671875 74.695312 336.589844 74.558594 336.457031 74.457031 L 254.601562 9.3125 C 254.476562 9.210938 254.320312 9.136719 254.148438 9.105469 C 254.136719 9.105469 254.125 9.101562 254.113281 9.101562 L 187.296875 0.0117188 C 187.167969 -0.0078125 187.027344 0.00390625 186.898438 0.0390625 L 155.054688 9.09375 L 154.148438 9.09375 C 153.96875 9.09375 153.796875 9.144531 153.644531 9.234375 C 153.644531 9.234375 153.644531 9.234375 153.640625 9.234375 L 152.832031 9.722656 L 74.453125 32.011719 C 74.429688 32.019531 74.414062 32.039062 74.390625 32.046875 C 74.285156 32.085938 74.191406 32.140625 74.101562 32.214844 C 74.066406 32.246094 74.03125 32.273438 74 32.304688 C 73.980469 32.324219 73.960938 32.332031 73.945312 32.355469 L 5.308594 121.496094 C 5.285156 121.527344 5.28125 121.558594 5.265625 121.585938 C 5.238281 121.625 5.210938 121.660156 5.191406 121.703125 C 5.179688 121.730469 5.175781 121.761719 5.167969 121.789062 C 5.148438 121.839844 5.140625 121.894531 5.132812 121.949219 C 5.125 121.980469 5.109375 122.007812 5.109375 122.042969 L 0.785156 200.441406 C 0.78125 200.511719 0.785156 200.582031 0.796875 200.648438 L 7.125 240.300781 C 7.132812 240.351562 7.160156 240.394531 7.175781 240.445312 C 7.183594 240.480469 7.183594 240.515625 7.195312 240.546875 C 7.199219 240.554688 7.207031 240.558594 7.210938 240.570312 C 7.214844 240.578125 7.214844 240.589844 7.222656 240.601562 L 39.175781 301.496094 C 39.230469 301.601562 39.304688 301.695312 39.394531 301.777344 L 76.875 334.925781 C 76.9375 334.996094 77.003906 335.054688 77.078125 335.101562 L 120.417969 364.328125 C 120.535156 364.40625 120.671875 364.457031 120.816406 364.480469 L 188.808594 375.0625 L 188.820312 375.0625 C 188.828125 375.0625 188.828125 375.066406 188.832031 375.066406 C 188.882812 375.074219 188.933594 375.078125 188.984375 375.078125 C 189.050781 375.078125 189.121094 375.070312 189.1875 375.054688 C 189.1875 375.054688 189.1875 375.054688 189.191406 375.054688 C 189.191406 375.054688 189.195312 375.054688 189.195312 375.054688 C 189.195312 375.054688 189.195312 375.054688 189.199219 375.050781 C 189.199219 375.050781 189.199219 375.050781 189.203125 375.050781 C 189.207031 375.050781 189.210938 375.050781 189.21875 375.046875 C 189.222656 375.050781 189.226562 375.042969 189.222656 375.042969 C 189.222656 375.042969 189.226562 375.042969 189.226562 375.042969 L 189.230469 375.042969 C 189.234375 375.042969 189.234375 375.039062 189.234375 375.039062 C 189.234375 375.039062 189.238281 375.039062 189.238281 375.039062 C 189.238281 375.042969 189.242188 375.039062 189.242188 375.039062 C 189.246094 375.035156 189.25 375.035156 189.253906 375.035156 L 300.363281 342.546875 C 300.402344 342.535156 300.425781 342.496094 300.464844 342.476562 C 300.570312 342.429688 300.65625 342.367188 300.742188 342.285156 C 300.777344 342.25 300.835938 342.242188 300.867188 342.199219 L 368.460938 253.007812 C 368.570312 252.867188 368.617188 252.703125 368.636719 252.535156 C 368.640625 252.515625 368.65625 252.503906 368.660156 252.484375 Z M 366.757812 251.640625 L 337.523438 259.035156 L 371.699219 178.730469 Z M 248.128906 240.265625 L 140.402344 202.339844 L 221.652344 143.800781 Z M 221.65625 140.644531 L 140.636719 87.621094 L 245.976562 57.46875 Z M 220.496094 142.222656 L 139.289062 200.730469 L 139.289062 89.078125 Z M 137.332031 201.070312 L 45.171875 155.8125 L 137.332031 89.183594 Z M 157.292969 309.570312 L 69.4375 260.316406 L 137.652344 204.449219 Z M 139.585938 204.128906 L 247.539062 242.132812 L 159.308594 309.703125 Z M 248.722656 243.691406 L 254.410156 324.492188 L 161.074219 310.816406 Z M 249.976562 239.585938 L 223.546875 143.300781 L 313.425781 152.289062 Z M 314.679688 153.894531 L 334.613281 259.199219 L 251.242188 241.171875 Z M 336.210938 257.117188 L 316.503906 153.007812 L 371.765625 173.578125 Z M 314.816406 149.226562 L 249.675781 57.53125 L 334.636719 75.964844 Z M 313.175781 150.296875 L 223.496094 141.328125 L 247.789062 58.25 Z M 139.59375 85.882812 L 154.855469 11.511719 L 244.710938 55.796875 Z M 137.574219 85.988281 L 68.648438 62.929688 L 152.738281 12.070312 Z M 136.191406 87.589844 L 44.875 153.609375 L 67.023438 64.453125 Z M 42.726562 154.144531 L 7.507812 122.070312 L 64.546875 66.300781 Z M 65.457031 62.675781 L 15.34375 111.667969 L 72.4375 37.527344 Z M 42.109375 156.234375 L 8.988281 235.453125 L 7.101562 124.34375 Z M 43.015625 159.144531 L 66.351562 258.972656 L 9.394531 239.554688 Z M 44.703125 157.761719 L 136.511719 202.847656 L 68.304688 258.714844 Z M 156.097656 311.144531 L 78.429688 333.035156 L 68.9375 262.28125 Z M 158.113281 312.613281 L 187.054688 372.367188 L 80.828125 334.390625 Z M 189.351562 372.609375 L 160.324219 312.683594 L 252.957031 326.257812 Z M 256.316406 323.691406 L 250.640625 243.042969 L 333.648438 260.992188 Z M 333.320312 263.777344 L 299.5625 340.375 L 257.441406 325.300781 Z M 336.550781 261.300781 L 365.222656 254.050781 L 304.351562 334.363281 Z M 316.398438 150.878906 L 336.007812 78.390625 L 371.382812 171.34375 Z M 254.707031 11.902344 L 331.957031 73.378906 L 248.511719 55.273438 Z M 187.238281 1.976562 L 239.527344 9.09375 L 162.214844 9.09375 Z M 252.855469 11.050781 L 246.636719 54.5625 L 158.351562 11.050781 Z M 67.933594 61.074219 L 75.519531 33.742188 L 146.480469 13.566406 Z M 2.742188 200.445312 L 5.5625 149.253906 L 6.871094 226.332031 Z M 40.824219 300.425781 L 14.894531 251.007812 L 71.3125 327.402344 Z M 10.734375 242.082031 L 66.816406 261.199219 L 76.136719 330.632812 Z M 84.59375 337.816406 L 178.925781 371.539062 L 121.328125 362.578125 Z M 255.628906 326.734375 L 296.921875 341.515625 L 194.09375 371.582031 Z M 255.628906 326.734375 " fill-opacity="1" fill-rule="nonzero"/></g></svg>