<?xml version="1.0" encoding="UTF-8"?><svg xmlns="http://www.w3.org/2000/svg" xmlns:xlink="http://www.w3.org/1999/xlink" contentScriptType="text/ecmascript" width="375" zoomAndPan="magnify" contentStyleType="text/css" viewBox="0 0 375 374.999991" height="374.999991" preserveAspectRatio="xMidYMid meet" version="1.0"><defs><clipPath id="clip-0"><path d="M 89.515625 89.160156 L 285.265625 89.160156 L 285.265625 285.660156 L 89.515625 285.660156 Z M 89.515625 89.160156 " clip-rule="nonzero"/></clipPath></defs><g clip-path="url(#clip-0)"><path fill="rgb(43.528748%, 41.569519%, 66.668701%)" d="M 285.191406 179.851562 C 285.199219 179.78125 285.183594 179.710938 285.160156 179.648438 C 285.160156 179.644531 285.160156 179.640625 285.160156 179.636719 L 265.652344 128.394531 C 265.648438 128.386719 265.640625 128.382812 265.640625 128.375 C 265.605469 128.300781 265.5625 128.226562 265.492188 128.175781 L 222.59375 94.039062 C 222.527344 93.984375 222.445312 93.945312 222.355469 93.929688 C 222.347656 93.929688 222.34375 93.929688 222.335938 93.929688 L 187.320312 89.164062 C 187.253906 89.15625 187.179688 89.160156 187.113281 89.179688 L 170.421875 93.921875 L 169.949219 93.921875 C 169.851562 93.921875 169.761719 93.949219 169.683594 93.996094 L 169.257812 94.253906 L 128.179688 105.933594 C 128.167969 105.9375 128.160156 105.949219 128.148438 105.953125 C 128.09375 105.972656 128.042969 106 127.996094 106.039062 C 127.976562 106.054688 127.960938 106.070312 127.941406 106.085938 C 127.933594 106.097656 127.921875 106.101562 127.914062 106.113281 L 91.941406 152.824219 C 91.929688 152.839844 91.929688 152.855469 91.921875 152.871094 C 91.90625 152.890625 91.890625 152.910156 91.882812 152.929688 C 91.875 152.945312 91.875 152.960938 91.867188 152.976562 C 91.859375 153.003906 91.855469 153.03125 91.851562 153.058594 C 91.847656 153.078125 91.839844 153.089844 91.839844 153.109375 L 89.574219 194.191406 C 89.570312 194.226562 89.574219 194.261719 89.578125 194.300781 L 92.894531 215.074219 C 92.898438 215.101562 92.914062 215.125 92.921875 215.152344 C 92.925781 215.171875 92.925781 215.1875 92.933594 215.203125 C 92.933594 215.210938 92.9375 215.210938 92.941406 215.21875 C 92.941406 215.222656 92.941406 215.230469 92.945312 215.234375 L 109.691406 247.144531 C 109.722656 247.199219 109.761719 247.246094 109.808594 247.289062 L 129.449219 264.660156 C 129.480469 264.695312 129.515625 264.726562 129.554688 264.753906 L 152.269531 280.066406 C 152.332031 280.109375 152.402344 280.136719 152.476562 280.148438 L 188.113281 285.691406 L 188.117188 285.691406 C 188.117188 285.691406 188.121094 285.691406 188.121094 285.691406 C 188.121094 285.691406 188.121094 285.691406 188.125 285.691406 C 188.152344 285.695312 188.179688 285.699219 188.203125 285.699219 C 188.203125 285.699219 188.203125 285.699219 188.207031 285.699219 C 188.242188 285.699219 188.277344 285.695312 188.308594 285.6875 C 188.308594 285.6875 188.3125 285.6875 188.3125 285.6875 C 188.3125 285.6875 188.316406 285.6875 188.316406 285.6875 C 188.316406 285.6875 188.316406 285.6875 188.316406 285.683594 C 188.316406 285.683594 188.316406 285.683594 188.320312 285.683594 C 188.320312 285.683594 188.324219 285.683594 188.328125 285.683594 C 188.328125 285.683594 188.332031 285.683594 188.328125 285.683594 C 188.328125 285.683594 188.332031 285.683594 188.332031 285.683594 L 188.332031 285.679688 C 188.332031 285.679688 188.335938 285.679688 188.335938 285.679688 C 188.335938 285.679688 188.335938 285.679688 188.339844 285.679688 C 188.34375 285.679688 188.34375 285.679688 188.34375 285.675781 L 246.578125 268.652344 C 246.597656 268.648438 246.609375 268.625 246.628906 268.617188 C 246.6875 268.59375 246.730469 268.558594 246.773438 268.515625 C 246.792969 268.496094 246.824219 268.492188 246.839844 268.472656 L 282.265625 221.734375 C 282.324219 221.660156 282.347656 221.574219 282.359375 221.488281 C 282.359375 221.476562 282.367188 221.46875 282.371094 221.460938 Z M 281.375 221.019531 L 266.050781 224.894531 L 283.964844 182.8125 Z M 219.203125 215.058594 L 162.746094 195.183594 L 205.324219 164.511719 Z M 205.328125 162.855469 L 162.867188 135.070312 L 218.074219 119.273438 Z M 204.71875 163.683594 L 162.160156 194.34375 L 162.160156 135.835938 Z M 161.136719 194.519531 L 112.835938 170.804688 L 161.136719 135.890625 Z M 171.59375 251.375 L 125.554688 225.566406 L 161.304688 196.289062 Z M 162.316406 196.121094 L 218.890625 216.039062 L 172.652344 251.441406 Z M 219.511719 216.855469 L 222.496094 259.191406 L 173.578125 252.027344 Z M 220.167969 214.703125 L 206.320312 164.25 L 253.421875 168.957031 Z M 254.078125 169.796875 L 264.527344 224.980469 L 220.835938 215.53125 Z M 265.363281 223.890625 L 255.035156 169.335938 L 283.996094 180.113281 Z M 254.152344 167.355469 L 220.011719 119.304688 L 264.539062 128.964844 Z M 253.292969 167.914062 L 206.292969 163.214844 L 219.023438 119.683594 Z M 162.320312 134.160156 L 170.316406 95.191406 L 217.410156 118.394531 Z M 161.261719 134.21875 L 125.136719 122.132812 L 169.210938 95.484375 Z M 160.539062 135.054688 L 112.679688 169.652344 L 124.289062 122.933594 Z M 111.554688 169.929688 L 93.097656 153.125 L 122.988281 123.902344 Z M 123.464844 122 L 97.203125 147.671875 L 127.125 108.820312 Z M 111.230469 171.023438 L 93.871094 212.535156 L 92.882812 154.316406 Z M 111.703125 172.550781 L 123.933594 224.859375 L 94.085938 214.6875 Z M 112.589844 171.824219 L 160.703125 195.453125 L 124.957031 224.726562 Z M 170.96875 252.199219 L 130.265625 263.667969 L 125.292969 226.59375 Z M 172.027344 252.96875 L 187.195312 284.28125 L 131.523438 264.378906 Z M 188.398438 284.40625 L 173.183594 253.003906 L 221.730469 260.117188 Z M 223.492188 258.773438 L 220.515625 216.511719 L 264.023438 225.917969 Z M 263.847656 227.378906 L 246.15625 267.515625 L 224.082031 259.617188 Z M 265.542969 226.082031 L 280.570312 222.28125 L 248.667969 264.367188 Z M 254.980469 168.21875 L 265.257812 130.234375 L 283.796875 178.941406 Z M 222.648438 95.394531 L 263.132812 127.609375 L 219.402344 118.121094 Z M 187.289062 90.195312 L 214.695312 93.921875 L 174.175781 93.921875 Z M 221.679688 94.949219 L 218.417969 117.75 L 172.148438 94.949219 Z M 124.765625 121.160156 L 128.738281 106.839844 L 165.929688 96.265625 Z M 90.597656 194.191406 L 92.078125 167.367188 L 92.761719 207.757812 Z M 110.558594 246.582031 L 96.964844 220.6875 L 126.535156 260.71875 Z M 94.789062 216.007812 L 124.179688 226.027344 L 129.0625 262.410156 Z M 133.496094 266.175781 L 182.933594 283.84375 L 152.746094 279.148438 Z M 223.132812 260.367188 L 244.773438 268.113281 L 190.882812 283.867188 Z M 223.132812 260.367188 " fill-opacity="1" fill-rule="nonzero"/></g></svg>