<?xml version="1.0" encoding="UTF-8"?><svg xmlns="http://www.w3.org/2000/svg" xmlns:xlink="http://www.w3.org/1999/xlink" contentScriptType="text/ecmascript" width="30" zoomAndPan="magnify" contentStyleType="text/css" viewBox="0 0 30 30.000001" height="30.000001" preserveAspectRatio="xMidYMid meet" version="1.0"><defs><clipPath id="clip-0"><path d="M 0.484375 0 L 29.515625 0 L 29.515625 29 L 0.484375 29 Z M 0.484375 0 " clip-rule="nonzero"/></clipPath><clipPath id="clip-1"><path d="M 21.03125 7.371094 L 21.21875 7.386719 L 21.402344 7.410156 L 21.585938 7.4375 L 21.769531 7.472656 L 21.953125 7.515625 L 22.132812 7.566406 L 22.308594 7.621094 L 22.484375 7.683594 L 22.65625 7.753906 L 22.824219 7.828125 L 22.992188 7.910156 L 23.15625 8 L 23.316406 8.09375 L 23.472656 8.195312 L 23.625 8.304688 L 23.773438 8.417969 L 23.917969 8.535156 L 24.058594 8.660156 L 24.195312 8.792969 L 24.324219 8.929688 L 24.449219 9.070312 L 24.570312 9.21875 L 24.6875 9.371094 L 24.796875 9.53125 L 24.898438 9.695312 L 24.996094 9.863281 L 25.089844 10.039062 L 25.171875 10.214844 L 25.25 10.398438 L 25.320312 10.582031 L 25.382812 10.769531 L 25.433594 10.953125 L 25.480469 11.140625 L 25.519531 11.328125 L 25.546875 11.515625 L 25.570312 11.703125 L 25.585938 11.890625 L 25.59375 12.078125 L 25.59375 12.265625 L 25.585938 12.453125 L 25.570312 12.640625 L 25.546875 12.824219 L 25.519531 13.003906 L 25.484375 13.1875 L 25.441406 13.367188 L 25.390625 13.546875 L 25.332031 13.722656 L 25.269531 13.894531 L 25.199219 14.066406 L 25.125 14.234375 L 24.953125 14.5625 L 24.855469 14.71875 L 24.753906 14.875 L 24.644531 15.027344 L 24.53125 15.175781 L 24.410156 15.316406 L 24.285156 15.457031 L 24.152344 15.59375 L 24.015625 15.722656 L 23.871094 15.847656 L 23.722656 15.964844 L 23.570312 16.078125 L 23.410156 16.1875 L 23.246094 16.292969 L 23.074219 16.386719 L 22.898438 16.480469 L 22.71875 16.5625 L 23.203125 16.6875 L 23.667969 16.839844 L 24.105469 17.015625 L 24.523438 17.214844 L 24.917969 17.4375 L 25.289062 17.675781 L 25.640625 17.9375 L 25.972656 18.214844 L 26.285156 18.507812 L 26.578125 18.816406 L 26.851562 19.136719 L 27.109375 19.46875 L 27.347656 19.808594 L 27.570312 20.160156 L 27.773438 20.515625 L 27.964844 20.878906 L 28.140625 21.242188 L 28.300781 21.609375 L 28.449219 21.976562 L 28.585938 22.339844 L 28.707031 22.703125 L 28.816406 23.0625 L 28.917969 23.417969 L 29.003906 23.761719 L 29.082031 24.101562 L 29.152344 24.429688 L 29.214844 24.742188 L 29.265625 25.046875 L 29.308594 25.332031 L 29.347656 25.605469 L 29.378906 25.859375 L 29.40625 26.09375 L 29.425781 26.304688 L 29.445312 26.496094 L 29.457031 26.660156 L 29.464844 26.800781 L 29.472656 26.917969 L 29.476562 27 L 29.480469 27.054688 L 29.480469 27.117188 L 29.476562 27.128906 L 29.476562 27.136719 L 29.472656 27.144531 L 29.472656 27.15625 L 29.46875 27.164062 L 29.46875 27.171875 L 29.464844 27.179688 L 29.460938 27.191406 L 29.4375 27.238281 L 29.429688 27.246094 L 29.421875 27.261719 L 29.414062 27.269531 L 29.410156 27.277344 L 29.402344 27.285156 L 29.398438 27.292969 L 29.390625 27.296875 L 29.382812 27.304688 L 29.378906 27.3125 L 29.371094 27.316406 L 29.363281 27.324219 L 29.347656 27.332031 L 29.339844 27.339844 L 29.324219 27.347656 L 29.316406 27.355469 L 29.308594 27.359375 L 29.296875 27.363281 L 29.28125 27.371094 L 29.078125 27.449219 L 28.875 27.523438 L 28.667969 27.601562 L 28.460938 27.671875 L 28.257812 27.746094 L 28.050781 27.8125 L 27.84375 27.882812 L 27.632812 27.945312 L 27.21875 28.070312 L 26.796875 28.1875 L 26.375 28.296875 L 25.953125 28.398438 L 25.738281 28.445312 L 25.527344 28.492188 L 25.3125 28.535156 L 25.101562 28.578125 L 24.671875 28.65625 L 24.242188 28.726562 L 23.8125 28.789062 L 23.59375 28.816406 L 23.378906 28.84375 L 23.164062 28.867188 L 22.945312 28.890625 L 22.730469 28.910156 L 22.292969 28.941406 L 22.078125 28.957031 L 21.640625 28.980469 L 21.421875 28.988281 L 20.765625 29 L 20.328125 28.992188 L 20.113281 28.988281 L 19.894531 28.980469 L 19.457031 28.957031 L 19.238281 28.941406 L 19.023438 28.925781 L 18.804688 28.910156 L 18.589844 28.890625 L 18.371094 28.867188 L 18.15625 28.84375 L 17.9375 28.816406 L 17.722656 28.789062 L 17.292969 28.726562 L 16.863281 28.65625 L 16.433594 28.578125 L 16.21875 28.535156 L 16.007812 28.492188 L 15.792969 28.445312 L 15.582031 28.398438 L 15.371094 28.347656 L 15.15625 28.296875 L 14.949219 28.242188 L 14.738281 28.1875 L 14.316406 28.070312 L 14.109375 28.007812 L 13.898438 27.945312 L 13.691406 27.882812 L 13.484375 27.8125 L 13.277344 27.746094 L 13.070312 27.671875 L 12.867188 27.601562 L 12.660156 27.523438 L 12.457031 27.449219 L 12.253906 27.371094 L 12.246094 27.367188 L 12.234375 27.363281 L 12.21875 27.355469 L 12.210938 27.347656 L 12.195312 27.339844 L 12.1875 27.332031 L 12.171875 27.324219 L 12.164062 27.316406 L 12.15625 27.3125 L 12.148438 27.304688 L 12.144531 27.296875 L 12.136719 27.292969 L 12.128906 27.285156 L 12.125 27.277344 L 12.117188 27.269531 L 12.109375 27.253906 L 12.101562 27.246094 L 12.085938 27.214844 L 12.078125 27.207031 L 12.078125 27.199219 L 12.074219 27.191406 L 12.070312 27.179688 L 12.0625 27.164062 L 12.0625 27.15625 L 12.058594 27.144531 L 12.058594 27.136719 L 12.054688 27.128906 L 12.054688 27.097656 L 12.050781 27.089844 L 12.050781 26.867188 L 11.582031 26.859375 L 11.117188 26.839844 L 10.660156 26.820312 L 10.207031 26.792969 L 9.761719 26.757812 L 9.324219 26.71875 L 8.890625 26.671875 L 8.464844 26.625 L 8.050781 26.570312 L 7.640625 26.507812 L 7.238281 26.441406 L 6.847656 26.371094 L 6.464844 26.296875 L 6.089844 26.21875 L 5.726562 26.132812 L 5.371094 26.046875 L 5.027344 25.953125 L 4.691406 25.855469 L 4.371094 25.753906 L 4.054688 25.648438 L 3.753906 25.539062 L 3.464844 25.425781 L 3.1875 25.308594 L 2.921875 25.191406 L 2.667969 25.066406 L 2.429688 24.9375 L 2.203125 24.808594 L 1.988281 24.675781 L 1.789062 24.539062 L 1.601562 24.398438 L 1.429688 24.257812 L 1.273438 24.113281 L 1.132812 23.964844 L 1.003906 23.816406 L 0.894531 23.664062 L 0.796875 23.507812 L 0.71875 23.351562 L 0.65625 23.191406 L 0.609375 23.03125 L 0.582031 22.871094 L 0.570312 22.859375 L 0.570312 22.851562 L 0.558594 22.839844 L 0.558594 22.835938 L 0.550781 22.828125 L 0.550781 22.824219 L 0.546875 22.816406 L 0.542969 22.8125 L 0.542969 22.808594 L 0.539062 22.804688 L 0.539062 22.796875 L 0.535156 22.792969 L 0.535156 22.789062 L 0.53125 22.785156 L 0.53125 22.78125 L 0.527344 22.773438 L 0.527344 22.769531 L 0.523438 22.765625 L 0.523438 22.753906 L 0.519531 22.75 L 0.519531 22.734375 L 0.515625 22.730469 L 0.515625 22.707031 L 0.511719 22.703125 L 0.511719 19.472656 L 0.515625 19.386719 L 0.523438 19.296875 L 0.535156 19.210938 L 0.550781 19.125 L 0.574219 19.039062 L 0.601562 18.953125 L 0.632812 18.867188 L 0.667969 18.785156 L 0.707031 18.699219 L 0.753906 18.617188 L 0.855469 18.453125 L 0.914062 18.371094 L 0.980469 18.292969 L 1.046875 18.210938 L 1.117188 18.132812 L 1.273438 17.976562 L 1.359375 17.902344 L 1.445312 17.824219 L 1.539062 17.75 L 1.734375 17.601562 L 1.839844 17.527344 L 1.949219 17.457031 L 2.175781 17.316406 L 2.296875 17.246094 L 2.421875 17.179688 L 2.546875 17.109375 L 2.679688 17.042969 L 2.8125 16.980469 L 2.949219 16.914062 L 3.089844 16.851562 L 3.234375 16.789062 L 3.382812 16.726562 L 3.6875 16.609375 L 4.007812 16.492188 L 4.03125 16.320312 L 4.054688 16.140625 L 4.085938 15.953125 L 4.117188 15.757812 L 4.152344 15.558594 L 4.195312 15.351562 L 4.238281 15.136719 L 4.289062 14.917969 L 4.34375 14.695312 L 4.40625 14.46875 L 4.472656 14.238281 L 4.542969 14.003906 L 4.617188 13.769531 L 4.703125 13.53125 L 4.792969 13.292969 L 4.886719 13.054688 L 4.988281 12.816406 L 5.101562 12.582031 L 5.21875 12.34375 L 5.34375 12.109375 L 5.472656 11.878906 L 5.613281 11.648438 L 5.761719 11.425781 L 5.917969 11.203125 L 6.085938 10.988281 L 6.257812 10.777344 L 6.441406 10.570312 L 6.636719 10.375 L 6.835938 10.183594 L 7.050781 10 L 7.273438 9.824219 L 7.503906 9.65625 L 7.746094 9.5 L 8 9.351562 L 8.265625 9.214844 L 8.542969 9.089844 L 8.828125 8.976562 L 9.128906 8.875 L 9.441406 8.789062 L 9.761719 8.714844 L 9.867188 8.691406 L 9.882812 8.6875 L 9.902344 8.683594 L 9.917969 8.683594 L 9.933594 8.679688 L 9.953125 8.675781 L 9.96875 8.671875 L 9.988281 8.667969 L 10.003906 8.667969 L 10.023438 8.664062 L 10.039062 8.660156 L 10.058594 8.65625 L 10.074219 8.65625 L 10.09375 8.652344 L 10.109375 8.648438 L 10.128906 8.648438 L 10.148438 8.644531 L 10.164062 8.640625 L 10.183594 8.640625 L 10.199219 8.636719 L 10.21875 8.632812 L 10.234375 8.632812 L 10.273438 8.625 L 10.289062 8.625 L 10.308594 8.621094 L 10.328125 8.621094 L 10.34375 8.617188 L 10.363281 8.613281 L 10.378906 8.613281 L 10.398438 8.609375 L 10.417969 8.609375 L 10.433594 8.605469 L 10.453125 8.605469 L 10.472656 8.601562 L 10.488281 8.601562 L 10.507812 8.597656 L 10.527344 8.597656 L 10.546875 8.59375 L 10.582031 8.59375 L 10.636719 8.585938 L 10.855469 8.570312 L 10.910156 8.570312 L 10.964844 8.566406 L 11.023438 8.566406 L 11.078125 8.5625 L 11.132812 8.5625 L 11.1875 8.558594 L 11.40625 8.558594 L 11.460938 8.5625 L 11.574219 8.5625 L 11.628906 8.566406 L 11.683594 8.566406 L 12.121094 8.597656 L 12.175781 8.605469 L 12.230469 8.609375 L 12.722656 8.679688 L 12.777344 8.691406 L 12.90625 8.714844 L 13 8.734375 L 13.28125 8.804688 L 13.371094 8.828125 L 13.464844 8.855469 L 13.554688 8.882812 L 13.648438 8.914062 L 13.917969 9.007812 L 14.003906 9.042969 L 14.09375 9.082031 L 14.179688 9.117188 L 14.269531 9.15625 L 14.355469 9.199219 L 14.441406 9.238281 L 14.523438 9.28125 L 14.609375 9.328125 L 14.691406 9.371094 L 14.777344 9.417969 L 14.855469 9.46875 L 14.9375 9.515625 L 15.019531 9.566406 L 15.097656 9.621094 L 15.175781 9.671875 L 15.332031 9.78125 L 15.410156 9.839844 L 15.632812 10.015625 L 15.707031 10.078125 L 15.777344 10.140625 L 15.847656 10.207031 L 15.917969 10.269531 L 15.988281 10.335938 L 16.054688 10.40625 L 16.121094 10.472656 L 16.1875 10.542969 L 16.222656 10.449219 L 16.257812 10.359375 L 16.335938 10.179688 L 16.378906 10.09375 L 16.421875 10.003906 L 16.46875 9.917969 L 16.511719 9.832031 L 16.714844 9.503906 L 16.773438 9.425781 L 16.828125 9.34375 L 16.886719 9.269531 L 16.945312 9.191406 L 17.132812 8.96875 L 17.265625 8.828125 L 17.332031 8.761719 L 17.472656 8.628906 L 17.546875 8.5625 L 17.617188 8.5 L 17.695312 8.4375 L 17.769531 8.378906 L 17.925781 8.261719 L 18.007812 8.207031 L 18.085938 8.152344 L 18.167969 8.101562 L 18.253906 8.050781 L 18.335938 8 L 18.507812 7.90625 L 18.6875 7.820312 L 18.777344 7.78125 L 18.960938 7.703125 L 19.144531 7.632812 L 19.332031 7.574219 L 19.519531 7.519531 L 19.707031 7.476562 L 19.898438 7.4375 L 20.085938 7.410156 L 20.277344 7.386719 L 20.464844 7.371094 L 20.652344 7.363281 L 20.84375 7.363281 Z M 20.574219 16.976562 L 20.492188 16.976562 L 20.414062 16.980469 L 20.332031 16.984375 L 20.253906 16.988281 L 20.171875 16.992188 L 20.09375 16.996094 L 20.011719 17.003906 L 19.933594 17.011719 L 19.851562 17.019531 L 19.773438 17.027344 L 19.691406 17.035156 L 19.613281 17.042969 L 19.535156 17.054688 L 19.453125 17.066406 L 19.296875 17.089844 L 19.214844 17.105469 L 19.136719 17.117188 L 19.019531 17.140625 L 18.597656 17.242188 L 18.199219 17.363281 L 17.816406 17.503906 L 17.449219 17.664062 L 17.101562 17.84375 L 16.773438 18.039062 L 16.457031 18.25 L 16.160156 18.476562 L 15.878906 18.71875 L 15.613281 18.972656 L 15.363281 19.234375 L 15.128906 19.511719 L 14.90625 19.796875 L 14.695312 20.085938 L 14.5 20.386719 L 14.320312 20.691406 L 14.148438 21 L 13.992188 21.3125 L 13.84375 21.628906 L 13.710938 21.945312 L 13.585938 22.265625 L 13.46875 22.582031 L 13.363281 22.894531 L 13.269531 23.207031 L 13.183594 23.515625 L 13.105469 23.816406 L 13.035156 24.113281 L 12.972656 24.402344 L 12.917969 24.683594 L 12.867188 24.953125 L 12.828125 25.210938 L 12.789062 25.457031 L 12.757812 25.691406 L 12.734375 25.910156 L 12.710938 26.117188 L 12.695312 26.304688 L 12.679688 26.472656 L 12.671875 26.625 L 12.664062 26.757812 L 12.65625 26.867188 L 13.046875 27.015625 L 13.441406 27.15625 L 13.835938 27.285156 L 14.230469 27.410156 L 14.628906 27.527344 L 15.03125 27.636719 L 15.433594 27.738281 L 15.835938 27.832031 L 16.238281 27.921875 L 16.644531 28 L 17.050781 28.070312 L 17.457031 28.136719 L 17.867188 28.191406 L 18.273438 28.242188 L 18.683594 28.28125 L 19.09375 28.316406 L 19.503906 28.34375 L 19.917969 28.359375 L 20.328125 28.371094 L 20.738281 28.375 L 21.148438 28.371094 L 21.5625 28.359375 L 21.972656 28.34375 L 22.382812 28.316406 L 22.792969 28.28125 L 23.203125 28.242188 L 23.609375 28.191406 L 24.019531 28.136719 L 24.425781 28.070312 L 24.832031 28 L 25.238281 27.921875 L 25.640625 27.835938 L 26.042969 27.742188 L 26.445312 27.640625 L 26.847656 27.53125 L 27.246094 27.414062 L 27.640625 27.289062 L 28.035156 27.15625 L 28.429688 27.019531 L 28.820312 26.871094 L 28.816406 26.761719 L 28.808594 26.628906 L 28.796875 26.480469 L 28.78125 26.308594 L 28.765625 26.121094 L 28.742188 25.917969 L 28.71875 25.699219 L 28.6875 25.464844 L 28.652344 25.21875 L 28.609375 24.957031 L 28.558594 24.6875 L 28.503906 24.410156 L 28.441406 24.121094 L 28.371094 23.824219 L 28.292969 23.523438 L 28.207031 23.214844 L 28.113281 22.902344 L 28.007812 22.589844 L 27.894531 22.269531 L 27.769531 21.953125 L 27.632812 21.636719 L 27.488281 21.320312 L 27.328125 21.007812 L 27.160156 20.695312 L 26.976562 20.390625 L 26.78125 20.09375 L 26.574219 19.800781 L 26.351562 19.515625 L 26.117188 19.242188 L 25.867188 18.976562 L 25.601562 18.722656 L 25.320312 18.484375 L 25.023438 18.253906 L 24.710938 18.042969 L 24.378906 17.847656 L 24.035156 17.667969 L 23.667969 17.507812 L 23.285156 17.367188 L 22.886719 17.246094 L 22.464844 17.144531 L 22.332031 17.117188 L 22.253906 17.105469 L 22.171875 17.089844 L 22.015625 17.066406 L 21.933594 17.054688 L 21.855469 17.042969 L 21.773438 17.035156 L 21.617188 17.019531 L 21.535156 17.011719 L 21.457031 17.003906 L 21.375 16.996094 L 21.296875 16.992188 L 21.214844 16.988281 L 21.136719 16.984375 L 20.972656 16.976562 Z M 1.121094 22.503906 L 1.121094 22.507812 L 1.128906 22.515625 L 1.128906 22.519531 L 1.136719 22.527344 L 1.136719 22.53125 L 1.140625 22.535156 L 1.140625 22.539062 L 1.144531 22.542969 L 1.144531 22.550781 L 1.148438 22.554688 L 1.148438 22.558594 L 1.152344 22.5625 L 1.152344 22.566406 L 1.15625 22.570312 L 1.15625 22.578125 L 1.160156 22.585938 L 1.160156 22.59375 L 1.164062 22.597656 L 1.164062 22.605469 L 1.167969 22.613281 L 1.167969 22.625 L 1.171875 22.628906 L 1.171875 22.675781 L 1.183594 22.804688 L 1.207031 22.929688 L 1.246094 23.054688 L 1.300781 23.183594 L 1.375 23.308594 L 1.460938 23.433594 L 1.5625 23.558594 L 1.679688 23.683594 L 1.808594 23.808594 L 1.957031 23.929688 L 2.117188 24.050781 L 2.292969 24.171875 L 2.480469 24.289062 L 2.679688 24.40625 L 2.898438 24.519531 L 3.125 24.628906 L 3.367188 24.738281 L 3.621094 24.847656 L 3.890625 24.953125 L 4.167969 25.054688 L 4.460938 25.152344 L 4.765625 25.25 L 5.082031 25.339844 L 5.410156 25.429688 L 5.75 25.515625 L 6.101562 25.597656 L 6.460938 25.671875 L 6.832031 25.746094 L 7.214844 25.816406 L 7.609375 25.878906 L 8.015625 25.9375 L 8.425781 25.992188 L 8.851562 26.042969 L 9.285156 26.085938 L 9.726562 26.125 L 10.179688 26.160156 L 10.640625 26.1875 L 11.109375 26.207031 L 11.585938 26.222656 L 12.074219 26.234375 L 12.074219 26.246094 L 12.078125 26.179688 L 12.085938 26.117188 L 12.09375 26.050781 L 12.097656 25.984375 L 12.105469 25.921875 L 12.113281 25.855469 L 12.121094 25.792969 L 12.136719 25.660156 L 12.144531 25.597656 L 12.152344 25.53125 L 12.160156 25.46875 L 12.167969 25.402344 L 12.179688 25.339844 L 12.1875 25.273438 L 12.199219 25.210938 L 12.207031 25.144531 L 12.21875 25.082031 L 12.226562 25.015625 L 12.238281 24.953125 L 12.25 24.886719 L 12.261719 24.824219 L 12.269531 24.757812 L 12.28125 24.695312 L 12.296875 24.628906 L 12.308594 24.566406 L 12.320312 24.5 L 12.34375 24.375 L 12.355469 24.308594 L 12.371094 24.246094 L 12.382812 24.183594 L 12.398438 24.117188 L 12.410156 24.054688 L 12.425781 23.992188 L 12.441406 23.925781 L 12.453125 23.863281 L 12.484375 23.738281 L 12.5 23.671875 L 11.996094 23.671875 L 11.828125 23.667969 L 11.660156 23.667969 L 11.492188 23.660156 L 11.15625 23.652344 L 10.652344 23.628906 L 10.484375 23.617188 L 10.316406 23.609375 L 10.148438 23.597656 L 9.984375 23.585938 L 9.816406 23.570312 L 9.648438 23.558594 L 9.3125 23.527344 L 9.148438 23.507812 L 8.980469 23.492188 L 8.644531 23.453125 L 8.480469 23.433594 L 8.144531 23.386719 L 7.980469 23.367188 L 7.8125 23.339844 L 7.648438 23.316406 L 7.480469 23.289062 L 7.152344 23.234375 L 6.984375 23.207031 L 6.820312 23.179688 L 6.652344 23.148438 L 6.324219 23.085938 L 5.832031 22.980469 L 5.695312 22.949219 L 5.566406 22.921875 L 5.433594 22.886719 L 5.175781 22.824219 L 4.800781 22.71875 L 4.4375 22.613281 L 4.320312 22.574219 L 4.203125 22.539062 L 3.863281 22.421875 L 3.644531 22.34375 L 3.539062 22.304688 L 3.328125 22.21875 L 3.226562 22.179688 L 3.128906 22.136719 L 3.027344 22.09375 L 2.933594 22.050781 L 2.835938 22.007812 L 2.742188 21.960938 L 2.652344 21.917969 L 2.5625 21.871094 L 2.472656 21.828125 L 2.300781 21.734375 L 2.136719 21.640625 L 1.902344 21.5 L 1.832031 21.449219 L 1.757812 21.402344 L 1.6875 21.351562 L 1.671875 21.339844 L 1.65625 21.332031 L 1.640625 21.320312 L 1.628906 21.308594 L 1.535156 21.238281 L 1.523438 21.226562 L 1.476562 21.191406 L 1.464844 21.179688 L 1.433594 21.15625 L 1.421875 21.144531 L 1.390625 21.121094 L 1.378906 21.105469 L 1.347656 21.082031 L 1.335938 21.070312 L 1.320312 21.058594 L 1.308594 21.042969 L 1.277344 21.019531 L 1.210938 20.953125 L 1.195312 20.941406 L 1.183594 20.925781 L 1.171875 20.914062 L 1.15625 20.902344 L 1.144531 20.886719 L 1.128906 20.875 L 1.117188 20.859375 L 1.117188 22.5 Z M 12.0625 15.90625 L 11.5625 15.917969 L 11.070312 15.933594 L 10.585938 15.957031 L 10.113281 15.988281 L 9.648438 16.023438 L 9.195312 16.0625 L 8.75 16.109375 L 8.316406 16.160156 L 7.890625 16.21875 L 7.480469 16.28125 L 7.078125 16.347656 L 6.683594 16.421875 L 6.304688 16.5 L 5.9375 16.578125 L 5.582031 16.664062 L 5.234375 16.753906 L 4.902344 16.847656 L 4.582031 16.945312 L 4.277344 17.042969 L 3.980469 17.148438 L 3.699219 17.253906 L 3.429688 17.363281 L 3.175781 17.472656 L 2.933594 17.589844 L 2.707031 17.707031 L 2.496094 17.824219 L 2.296875 17.945312 L 2.113281 18.066406 L 1.945312 18.191406 L 1.789062 18.316406 L 1.652344 18.445312 L 1.527344 18.570312 L 1.421875 18.699219 L 1.328125 18.828125 L 1.253906 18.960938 L 1.195312 19.089844 L 1.152344 19.21875 L 1.125 19.347656 L 1.117188 19.480469 L 1.117188 19.511719 L 1.121094 19.546875 L 1.121094 19.582031 L 1.125 19.617188 L 1.132812 19.652344 L 1.136719 19.6875 L 1.144531 19.71875 L 1.15625 19.753906 L 1.164062 19.789062 L 1.1875 19.859375 L 1.203125 19.894531 L 1.214844 19.925781 L 1.234375 19.960938 L 1.25 19.996094 L 1.289062 20.066406 L 1.308594 20.097656 L 1.328125 20.132812 L 1.375 20.203125 L 1.402344 20.238281 L 1.429688 20.269531 L 1.484375 20.339844 L 1.515625 20.375 L 1.546875 20.40625 L 1.578125 20.441406 L 1.648438 20.511719 L 1.683594 20.542969 L 1.71875 20.578125 L 1.757812 20.613281 L 1.796875 20.644531 L 1.835938 20.679688 L 1.878906 20.710938 L 1.964844 20.78125 L 2.011719 20.8125 L 2.058594 20.847656 L 2.121094 20.890625 L 2.1875 20.9375 L 2.398438 21.066406 L 2.472656 21.113281 L 2.707031 21.242188 L 2.789062 21.28125 L 2.953125 21.367188 L 3.042969 21.40625 L 3.128906 21.449219 L 3.21875 21.488281 L 3.3125 21.53125 L 3.402344 21.570312 L 3.5 21.609375 L 3.59375 21.648438 L 3.691406 21.6875 L 3.996094 21.804688 L 4.097656 21.839844 L 4.207031 21.878906 L 4.3125 21.914062 L 4.421875 21.949219 L 4.53125 21.988281 L 4.644531 22.019531 L 4.871094 22.089844 L 4.988281 22.125 L 5.105469 22.15625 L 5.226562 22.191406 L 5.589844 22.285156 L 5.839844 22.347656 L 5.96875 22.375 L 6.132812 22.410156 L 6.292969 22.445312 L 6.949219 22.570312 L 7.109375 22.597656 L 7.277344 22.625 L 7.4375 22.652344 L 7.605469 22.679688 L 7.769531 22.707031 L 8.261719 22.777344 L 8.425781 22.796875 L 8.589844 22.820312 L 8.757812 22.839844 L 8.921875 22.859375 L 9.085938 22.875 L 9.25 22.894531 L 9.417969 22.910156 L 9.582031 22.925781 L 9.75 22.941406 L 9.914062 22.953125 L 10.078125 22.96875 L 10.246094 22.980469 L 10.410156 22.992188 L 10.578125 23 L 10.742188 23.007812 L 10.910156 23.019531 L 11.074219 23.023438 L 11.242188 23.03125 L 11.40625 23.035156 L 11.574219 23.042969 L 11.742188 23.046875 L 11.90625 23.046875 L 12.074219 23.050781 L 12.671875 23.050781 L 12.730469 22.855469 L 12.792969 22.65625 L 12.859375 22.460938 L 12.929688 22.261719 L 13 22.058594 L 13.078125 21.859375 L 13.160156 21.65625 L 13.246094 21.457031 L 13.335938 21.257812 L 13.429688 21.054688 L 13.527344 20.855469 L 13.632812 20.65625 L 13.738281 20.460938 L 13.851562 20.265625 L 13.96875 20.070312 L 14.09375 19.878906 L 14.21875 19.691406 L 14.351562 19.503906 L 14.488281 19.320312 L 14.632812 19.136719 L 14.78125 18.960938 L 14.933594 18.785156 L 15.09375 18.617188 L 15.257812 18.449219 L 15.429688 18.289062 L 15.605469 18.132812 L 15.789062 17.980469 L 15.980469 17.832031 L 16.175781 17.691406 L 16.375 17.554688 L 16.585938 17.425781 L 16.796875 17.300781 L 17.019531 17.183594 L 17.246094 17.074219 L 17.484375 16.96875 L 17.722656 16.875 L 17.972656 16.785156 L 18.230469 16.703125 L 18.492188 16.628906 L 18.761719 16.5625 L 18.753906 16.558594 L 18.75 16.554688 L 18.742188 16.554688 L 18.710938 16.539062 L 18.703125 16.539062 L 18.695312 16.535156 L 18.691406 16.53125 L 18.660156 16.515625 L 18.652344 16.515625 L 18.644531 16.511719 L 18.640625 16.507812 L 18.609375 16.492188 L 18.601562 16.492188 L 18.597656 16.488281 L 18.558594 16.46875 L 18.554688 16.464844 L 18.546875 16.460938 L 18.539062 16.460938 L 18.507812 16.445312 L 18.503906 16.441406 L 18.472656 16.425781 L 18.328125 16.398438 L 18.183594 16.375 L 18.035156 16.347656 L 17.890625 16.324219 L 17.742188 16.300781 L 17.597656 16.277344 L 17.449219 16.253906 L 17.304688 16.230469 L 17.15625 16.210938 L 17.011719 16.191406 L 16.714844 16.152344 L 16.570312 16.132812 L 16.421875 16.117188 L 16.273438 16.097656 L 16.125 16.082031 L 15.980469 16.066406 L 15.832031 16.050781 L 15.683594 16.039062 L 15.535156 16.023438 L 15.390625 16.011719 L 14.945312 15.976562 L 14.796875 15.96875 L 14.648438 15.957031 L 14.351562 15.941406 L 14.203125 15.9375 L 14.058594 15.929688 L 13.90625 15.921875 L 13.761719 15.917969 L 13.316406 15.90625 L 13.167969 15.90625 L 13.019531 15.902344 L 12.574219 15.902344 Z M 20.425781 8.03125 L 20.273438 8.054688 L 20.121094 8.082031 L 19.96875 8.113281 L 19.824219 8.148438 L 19.675781 8.191406 L 19.53125 8.238281 L 19.390625 8.292969 L 19.253906 8.347656 L 19.117188 8.410156 L 18.980469 8.476562 L 18.722656 8.625 L 18.597656 8.703125 L 18.355469 8.875 L 18.128906 9.0625 L 18.019531 9.164062 L 17.914062 9.265625 L 17.8125 9.375 L 17.714844 9.484375 L 17.621094 9.597656 L 17.53125 9.714844 L 17.445312 9.835938 L 17.363281 9.960938 L 17.285156 10.089844 L 17.214844 10.21875 L 17.144531 10.351562 L 17.082031 10.484375 L 17.023438 10.625 L 16.96875 10.765625 L 16.917969 10.90625 L 16.875 11.050781 L 16.835938 11.199219 L 16.804688 11.347656 L 16.773438 11.5 L 16.753906 11.652344 L 16.734375 11.808594 L 16.722656 11.980469 L 16.71875 12.152344 L 16.71875 12.320312 L 16.726562 12.488281 L 16.742188 12.65625 L 16.765625 12.820312 L 16.792969 12.984375 L 16.828125 13.144531 L 16.871094 13.304688 L 16.917969 13.460938 L 16.96875 13.613281 L 17.027344 13.765625 L 17.09375 13.914062 L 17.164062 14.0625 L 17.238281 14.203125 L 17.320312 14.34375 L 17.40625 14.480469 L 17.5 14.613281 L 17.59375 14.742188 L 17.695312 14.867188 L 17.800781 14.988281 L 17.910156 15.105469 L 18.027344 15.21875 L 18.148438 15.328125 L 18.269531 15.429688 L 18.398438 15.53125 L 18.53125 15.625 L 18.664062 15.714844 L 18.804688 15.800781 L 18.949219 15.878906 L 19.09375 15.953125 L 19.246094 16.023438 L 19.398438 16.085938 L 19.554688 16.144531 L 19.714844 16.195312 L 19.878906 16.238281 L 20.042969 16.277344 L 20.210938 16.308594 L 20.378906 16.335938 L 20.554688 16.355469 L 20.929688 16.355469 L 21.085938 16.339844 L 21.242188 16.316406 L 21.394531 16.289062 L 21.542969 16.253906 L 21.691406 16.214844 L 21.839844 16.171875 L 21.984375 16.121094 L 22.125 16.070312 L 22.261719 16.011719 L 22.535156 15.878906 L 22.664062 15.808594 L 22.792969 15.730469 L 22.917969 15.648438 L 23.039062 15.5625 L 23.15625 15.472656 L 23.269531 15.382812 L 23.382812 15.285156 L 23.492188 15.183594 L 23.59375 15.078125 L 23.695312 14.96875 L 23.792969 14.859375 L 23.886719 14.742188 L 23.972656 14.625 L 24.058594 14.503906 L 24.214844 14.253906 L 24.285156 14.121094 L 24.351562 13.988281 L 24.414062 13.855469 L 24.472656 13.714844 L 24.527344 13.574219 L 24.574219 13.433594 L 24.617188 13.289062 L 24.652344 13.140625 L 24.683594 12.992188 L 24.710938 12.839844 L 24.734375 12.6875 L 24.75 12.535156 L 24.757812 12.378906 L 24.761719 12.207031 L 24.761719 12.035156 L 24.75 11.867188 L 24.734375 11.699219 L 24.710938 11.53125 L 24.683594 11.367188 L 24.648438 11.207031 L 24.605469 11.046875 L 24.558594 10.890625 L 24.503906 10.738281 L 24.445312 10.585938 L 24.378906 10.4375 L 24.304688 10.289062 L 24.230469 10.148438 L 24.148438 10.007812 L 23.96875 9.742188 L 23.871094 9.613281 L 23.769531 9.488281 L 23.660156 9.367188 L 23.550781 9.25 L 23.433594 9.136719 L 23.191406 8.925781 L 23.0625 8.828125 L 22.929688 8.734375 L 22.792969 8.644531 L 22.652344 8.5625 L 22.511719 8.484375 L 22.363281 8.410156 L 22.214844 8.34375 L 22.0625 8.28125 L 21.90625 8.226562 L 21.746094 8.175781 L 21.585938 8.128906 L 21.417969 8.09375 L 21.253906 8.0625 L 21.082031 8.035156 L 20.914062 8.019531 L 20.738281 8.007812 L 20.582031 8.015625 Z M 8.925781 9.601562 L 8.6875 9.703125 L 8.457031 9.8125 L 8.234375 9.929688 L 8.023438 10.054688 L 7.820312 10.1875 L 7.621094 10.328125 L 7.433594 10.476562 L 7.253906 10.632812 L 7.082031 10.792969 L 6.917969 10.960938 L 6.757812 11.132812 L 6.605469 11.3125 L 6.460938 11.492188 L 6.324219 11.679688 L 6.195312 11.867188 L 6.070312 12.0625 L 5.953125 12.257812 L 5.84375 12.453125 L 5.734375 12.652344 L 5.636719 12.855469 L 5.542969 13.058594 L 5.453125 13.261719 L 5.371094 13.464844 L 5.292969 13.667969 L 5.21875 13.875 L 5.148438 14.074219 L 5.085938 14.277344 L 5.027344 14.476562 L 4.972656 14.671875 L 4.921875 14.867188 L 4.875 15.058594 L 4.832031 15.246094 L 4.792969 15.429688 L 4.757812 15.609375 L 4.722656 15.785156 L 4.695312 15.953125 L 4.667969 16.117188 L 4.644531 16.277344 L 4.746094 16.246094 L 5.253906 16.109375 L 5.359375 16.082031 L 5.460938 16.058594 L 5.5625 16.03125 L 5.765625 15.984375 L 5.871094 15.957031 L 6.074219 15.910156 L 6.179688 15.890625 L 6.28125 15.867188 L 6.386719 15.84375 L 6.589844 15.804688 L 6.695312 15.78125 L 6.800781 15.761719 L 6.902344 15.742188 L 7.007812 15.726562 L 7.109375 15.707031 L 7.214844 15.6875 L 7.316406 15.671875 L 7.421875 15.652344 L 7.527344 15.636719 L 7.628906 15.621094 L 7.945312 15.574219 L 8.046875 15.5625 L 8.152344 15.546875 L 8.257812 15.535156 L 8.363281 15.519531 L 8.464844 15.507812 L 8.78125 15.472656 L 9.933594 10.835938 L 9.351562 10.0625 L 9.347656 10.058594 L 9.339844 10.042969 L 9.335938 10.039062 L 9.328125 10.023438 L 9.324219 10.019531 L 9.3125 9.996094 L 9.308594 9.992188 L 9.308594 9.984375 L 9.300781 9.96875 L 9.300781 9.960938 L 9.296875 9.953125 L 9.296875 9.941406 L 9.292969 9.933594 L 9.292969 9.917969 L 9.289062 9.910156 L 9.289062 9.835938 L 9.292969 9.828125 L 9.292969 9.820312 L 9.296875 9.8125 L 9.296875 9.796875 L 9.300781 9.789062 L 9.300781 9.78125 L 9.304688 9.773438 L 9.425781 9.433594 L 9.171875 9.511719 Z M 13.335938 9.78125 L 13.335938 9.789062 L 13.339844 9.796875 L 13.339844 9.804688 L 13.34375 9.8125 L 13.34375 9.828125 L 13.347656 9.835938 L 13.347656 9.863281 L 13.351562 9.871094 L 13.351562 9.878906 L 13.347656 9.886719 L 13.347656 9.925781 L 13.34375 9.933594 L 13.34375 9.9375 L 13.339844 9.945312 L 13.339844 9.960938 L 13.332031 9.976562 L 13.332031 9.984375 L 13.328125 9.992188 L 13.324219 9.996094 L 13.324219 10.003906 L 13.316406 10.019531 L 13.3125 10.023438 L 13.304688 10.039062 L 13.300781 10.042969 L 13.292969 10.058594 L 13.289062 10.0625 L 12.703125 10.835938 L 13.8125 15.304688 L 13.902344 15.304688 L 13.988281 15.308594 L 14.167969 15.316406 L 14.253906 15.320312 L 14.433594 15.328125 L 14.523438 15.335938 L 14.609375 15.339844 L 14.699219 15.34375 L 14.789062 15.351562 L 14.878906 15.355469 L 14.964844 15.359375 L 15.144531 15.375 L 15.230469 15.382812 L 15.320312 15.386719 L 15.410156 15.394531 L 15.496094 15.402344 L 15.675781 15.417969 L 15.761719 15.425781 L 15.941406 15.441406 L 16.027344 15.453125 L 16.117188 15.460938 L 16.207031 15.472656 L 16.292969 15.480469 L 16.382812 15.488281 L 16.46875 15.5 L 16.558594 15.511719 L 16.648438 15.519531 L 16.734375 15.53125 L 16.824219 15.542969 L 16.910156 15.554688 L 17 15.566406 L 17.085938 15.578125 L 17.265625 15.601562 L 17.351562 15.613281 L 17.179688 15.441406 L 17.101562 15.351562 L 17.019531 15.261719 L 16.871094 15.074219 L 16.730469 14.878906 L 16.664062 14.78125 L 16.539062 14.578125 L 16.480469 14.476562 L 16.371094 14.265625 L 16.320312 14.160156 L 16.273438 14.050781 L 16.1875 13.832031 L 16.148438 13.71875 L 16.113281 13.609375 L 16.078125 13.496094 L 16.046875 13.382812 L 16.019531 13.269531 L 15.992188 13.152344 L 15.96875 13.035156 L 15.949219 12.921875 L 15.917969 12.6875 L 15.910156 12.570312 L 15.902344 12.449219 L 15.894531 12.332031 L 15.894531 12.09375 L 15.898438 11.976562 L 15.914062 11.734375 L 15.925781 11.617188 L 15.941406 11.496094 L 15.960938 11.378906 L 15.984375 11.257812 L 15.929688 11.191406 L 15.820312 11.066406 L 15.703125 10.941406 L 15.644531 10.882812 L 15.585938 10.820312 L 15.527344 10.761719 L 15.464844 10.707031 L 15.402344 10.648438 L 15.277344 10.539062 L 15.210938 10.484375 L 15.148438 10.429688 L 15.015625 10.328125 L 14.945312 10.277344 L 14.878906 10.230469 L 14.667969 10.089844 L 14.597656 10.046875 L 14.527344 10 L 14.453125 9.960938 L 14.378906 9.917969 L 14.082031 9.761719 L 14.003906 9.726562 L 13.929688 9.691406 L 13.851562 9.660156 L 13.773438 9.625 L 13.695312 9.59375 L 13.613281 9.566406 L 13.535156 9.535156 L 13.457031 9.507812 L 13.375 9.480469 L 13.210938 9.433594 L 13.332031 9.773438 Z M 10.417969 11.453125 L 10.242188 12.167969 L 10.082031 12.8125 L 10.007812 13.105469 L 9.816406 13.890625 L 9.761719 14.117188 L 9.707031 14.328125 L 9.578125 14.851562 L 9.515625 15.109375 L 9.488281 15.214844 L 9.46875 15.300781 L 9.449219 15.371094 L 9.4375 15.425781 L 9.585938 15.410156 L 9.664062 15.40625 L 9.738281 15.398438 L 9.816406 15.394531 L 9.890625 15.386719 L 9.964844 15.382812 L 10.042969 15.375 L 10.121094 15.371094 L 10.195312 15.363281 L 10.273438 15.359375 L 10.347656 15.355469 L 10.582031 15.34375 L 10.660156 15.335938 L 10.894531 15.324219 L 10.972656 15.324219 L 11.285156 15.308594 L 11.367188 15.308594 L 11.523438 15.300781 L 11.605469 15.300781 L 11.683594 15.296875 L 11.765625 15.296875 L 11.84375 15.292969 L 12.003906 15.292969 L 12.085938 15.289062 L 13.164062 15.289062 L 12.113281 11.070312 L 10.511719 11.070312 Z M 11.152344 9.183594 L 11.039062 9.1875 L 10.929688 9.191406 L 10.703125 9.207031 L 10.59375 9.214844 L 10.480469 9.226562 L 10.371094 9.238281 L 10.257812 9.253906 L 10.148438 9.269531 L 9.953125 9.820312 L 10.429688 10.441406 L 12.210938 10.441406 L 12.6875 9.820312 L 12.492188 9.269531 L 12.378906 9.253906 L 12.269531 9.238281 L 12.15625 9.226562 L 12.046875 9.214844 L 11.933594 9.207031 L 11.824219 9.199219 L 11.710938 9.191406 L 11.597656 9.1875 L 11.488281 9.183594 Z M 11.632812 0.0507812 L 11.796875 0.0664062 L 11.960938 0.0898438 L 12.128906 0.117188 L 12.292969 0.15625 L 12.457031 0.199219 L 12.621094 0.25 L 12.777344 0.304688 L 12.929688 0.367188 L 13.082031 0.433594 L 13.226562 0.503906 L 13.371094 0.582031 L 13.511719 0.667969 L 13.644531 0.753906 L 13.777344 0.847656 L 13.902344 0.945312 L 14.023438 1.046875 L 14.144531 1.152344 L 14.257812 1.265625 L 14.367188 1.378906 L 14.46875 1.496094 L 14.570312 1.621094 L 14.664062 1.746094 L 14.753906 1.875 L 14.839844 2.007812 L 14.917969 2.144531 L 14.992188 2.285156 L 15.0625 2.425781 L 15.125 2.570312 L 15.183594 2.714844 L 15.234375 2.863281 L 15.28125 3.015625 L 15.320312 3.167969 L 15.355469 3.324219 L 15.382812 3.480469 L 15.40625 3.636719 L 15.421875 3.796875 L 15.433594 3.960938 L 15.4375 4.121094 L 15.433594 4.285156 L 15.421875 4.445312 L 15.40625 4.609375 L 15.382812 4.773438 L 15.355469 4.9375 L 15.316406 5.105469 L 15.316406 5.140625 L 15.285156 5.261719 L 15.25 5.382812 L 15.210938 5.5 L 15.167969 5.617188 L 15.121094 5.730469 L 15.019531 5.957031 L 14.964844 6.0625 L 14.90625 6.171875 L 14.84375 6.277344 L 14.710938 6.480469 L 14.640625 6.578125 L 14.566406 6.675781 L 14.492188 6.769531 L 14.414062 6.859375 L 14.332031 6.949219 L 14.160156 7.121094 L 14.070312 7.203125 L 13.980469 7.28125 L 13.886719 7.359375 L 13.789062 7.433594 L 13.691406 7.503906 L 13.59375 7.570312 L 13.488281 7.636719 L 13.386719 7.699219 L 13.277344 7.757812 L 13.171875 7.8125 L 13.0625 7.867188 L 12.949219 7.917969 L 12.835938 7.964844 L 12.71875 8.007812 L 12.605469 8.046875 L 12.363281 8.117188 L 12.246094 8.144531 L 12.121094 8.171875 L 11.996094 8.195312 L 11.871094 8.214844 L 11.535156 8.246094 L 11.371094 8.25 L 11.203125 8.25 L 11.039062 8.242188 L 10.875 8.226562 L 10.714844 8.207031 L 10.554688 8.179688 L 10.398438 8.148438 L 10.242188 8.109375 L 10.085938 8.0625 L 9.9375 8.015625 L 9.785156 7.957031 L 9.640625 7.894531 L 9.496094 7.828125 L 9.355469 7.757812 L 9.21875 7.679688 L 9.085938 7.597656 L 8.953125 7.507812 L 8.824219 7.417969 L 8.703125 7.320312 L 8.582031 7.21875 L 8.464844 7.109375 L 8.351562 7 L 8.140625 6.765625 L 8.042969 6.640625 L 7.949219 6.515625 L 7.859375 6.382812 L 7.773438 6.246094 L 7.695312 6.109375 L 7.621094 5.964844 L 7.554688 5.820312 L 7.488281 5.671875 L 7.433594 5.519531 L 7.382812 5.363281 L 7.335938 5.207031 L 7.296875 5.046875 L 7.265625 4.882812 L 7.238281 4.714844 L 7.234375 4.710938 L 7.234375 4.707031 L 7.230469 4.707031 L 7.230469 4.703125 L 7.226562 4.703125 L 7.226562 4.683594 L 7.222656 4.644531 L 7.214844 4.609375 L 7.199219 4.453125 L 7.199219 4.414062 L 7.195312 4.378906 L 7.195312 4.339844 L 7.191406 4.300781 L 7.191406 4.261719 L 7.1875 4.222656 L 7.1875 4.03125 L 7.191406 3.992188 L 7.191406 3.953125 L 7.195312 3.914062 L 7.195312 3.878906 L 7.203125 3.800781 L 7.203125 3.761719 L 7.210938 3.683594 L 7.214844 3.648438 L 7.222656 3.609375 L 7.230469 3.53125 L 7.238281 3.496094 L 7.246094 3.457031 L 7.25 3.417969 L 7.257812 3.382812 L 7.273438 3.304688 L 7.28125 3.269531 L 7.296875 3.191406 L 7.308594 3.15625 L 7.351562 2.992188 L 7.402344 2.832031 L 7.457031 2.675781 L 7.519531 2.523438 L 7.585938 2.375 L 7.660156 2.226562 L 7.738281 2.085938 L 7.820312 1.949219 L 7.910156 1.816406 L 8.003906 1.683594 L 8.101562 1.558594 L 8.207031 1.4375 L 8.3125 1.320312 L 8.425781 1.207031 L 8.539062 1.097656 L 8.660156 0.996094 L 8.785156 0.898438 L 8.910156 0.804688 L 9.039062 0.714844 L 9.175781 0.628906 L 9.3125 0.550781 L 9.453125 0.476562 L 9.59375 0.410156 L 9.738281 0.347656 L 9.886719 0.289062 L 10.035156 0.238281 L 10.191406 0.191406 L 10.34375 0.152344 L 10.5 0.117188 L 10.65625 0.0898438 L 10.816406 0.0664062 L 10.976562 0.0507812 L 11.140625 0.0390625 L 11.304688 0.0351562 L 11.46875 0.0390625 Z M 12.109375 3.128906 L 11.996094 3.222656 L 11.878906 3.3125 L 11.761719 3.398438 L 11.519531 3.5625 L 11.398438 3.640625 L 11.148438 3.789062 L 11.023438 3.859375 L 10.894531 3.925781 L 10.644531 4.050781 L 10.515625 4.109375 L 10.390625 4.167969 L 10.261719 4.222656 L 10.011719 4.324219 L 9.886719 4.371094 L 9.523438 4.5 L 9.40625 4.539062 L 9.289062 4.574219 L 9.0625 4.644531 L 8.953125 4.675781 L 8.742188 4.730469 L 8.640625 4.753906 L 8.542969 4.78125 L 8.449219 4.800781 L 8.359375 4.820312 L 8.273438 4.839844 L 8.191406 4.859375 L 8.113281 4.875 L 8.039062 4.890625 L 7.96875 4.902344 L 7.90625 4.914062 L 7.933594 5.03125 L 7.96875 5.148438 L 8.003906 5.261719 L 8.042969 5.375 L 8.136719 5.59375 L 8.1875 5.699219 L 8.242188 5.804688 L 8.296875 5.90625 L 8.359375 6.007812 L 8.421875 6.105469 L 8.5625 6.292969 L 8.632812 6.382812 L 8.789062 6.554688 L 8.871094 6.636719 L 9.042969 6.792969 L 9.132812 6.867188 L 9.222656 6.9375 L 9.316406 7.003906 L 9.511719 7.128906 L 9.613281 7.1875 L 9.714844 7.242188 L 9.925781 7.34375 L 10.035156 7.386719 L 10.253906 7.464844 L 10.367188 7.5 L 10.480469 7.527344 L 10.597656 7.554688 L 10.714844 7.578125 L 10.835938 7.597656 L 10.953125 7.609375 L 11.074219 7.621094 L 11.195312 7.628906 L 11.429688 7.628906 L 11.542969 7.625 L 11.65625 7.613281 L 11.765625 7.601562 L 11.875 7.585938 L 11.984375 7.566406 L 12.089844 7.542969 L 12.199219 7.519531 L 12.304688 7.488281 L 12.40625 7.457031 L 12.511719 7.421875 L 12.613281 7.382812 L 12.710938 7.34375 L 12.90625 7.25 L 13.003906 7.199219 L 13.097656 7.144531 L 13.1875 7.089844 L 13.277344 7.03125 L 13.367188 6.96875 L 13.453125 6.90625 L 13.539062 6.839844 L 13.621094 6.769531 L 13.699219 6.699219 L 13.777344 6.625 L 13.925781 6.46875 L 13.996094 6.386719 L 14.066406 6.300781 L 14.132812 6.214844 L 14.195312 6.128906 L 14.253906 6.039062 L 14.3125 5.945312 L 14.367188 5.851562 L 14.421875 5.753906 L 14.46875 5.65625 L 14.515625 5.554688 L 14.558594 5.453125 L 14.597656 5.351562 L 14.636719 5.242188 L 14.539062 5.207031 L 14.445312 5.167969 L 14.355469 5.125 L 14.265625 5.078125 L 14.09375 4.984375 L 13.929688 4.882812 L 13.773438 4.773438 L 13.699219 4.714844 L 13.628906 4.65625 L 13.554688 4.597656 L 13.488281 4.535156 L 13.421875 4.476562 L 13.355469 4.414062 L 13.292969 4.347656 L 13.230469 4.285156 L 13.171875 4.21875 L 13.117188 4.15625 L 13.058594 4.089844 L 13.007812 4.023438 L 12.953125 3.957031 L 12.902344 3.890625 L 12.855469 3.828125 L 12.808594 3.761719 L 12.765625 3.695312 L 12.722656 3.632812 L 12.679688 3.566406 L 12.601562 3.441406 L 12.566406 3.382812 L 12.53125 3.320312 L 12.496094 3.261719 L 12.433594 3.144531 L 12.40625 3.089844 L 12.378906 3.039062 L 12.351562 2.984375 L 12.328125 2.933594 L 12.21875 3.035156 Z M 11.03125 0.710938 L 10.890625 0.726562 L 10.753906 0.746094 L 10.617188 0.769531 L 10.480469 0.800781 L 10.347656 0.835938 L 10.214844 0.878906 L 10.089844 0.921875 L 9.960938 0.972656 L 9.835938 1.03125 L 9.714844 1.089844 L 9.597656 1.152344 L 9.371094 1.292969 L 9.261719 1.371094 L 9.152344 1.453125 L 9.050781 1.535156 L 8.949219 1.625 L 8.761719 1.8125 L 8.671875 1.914062 L 8.585938 2.015625 L 8.503906 2.121094 L 8.429688 2.230469 L 8.355469 2.34375 L 8.285156 2.457031 L 8.222656 2.574219 L 8.105469 2.816406 L 8.054688 2.945312 L 8.011719 3.070312 L 7.96875 3.203125 L 7.933594 3.332031 L 7.902344 3.46875 L 7.878906 3.601562 L 7.859375 3.742188 L 7.84375 3.878906 L 7.835938 4.023438 L 7.832031 4.164062 L 7.832031 4.296875 L 7.898438 4.28125 L 7.96875 4.269531 L 8.046875 4.253906 L 8.210938 4.214844 L 8.304688 4.195312 L 8.394531 4.171875 L 8.496094 4.148438 L 8.59375 4.121094 L 8.699219 4.09375 L 8.917969 4.03125 L 9.03125 3.996094 L 9.148438 3.960938 L 9.382812 3.882812 L 9.625 3.796875 L 9.75 3.75 L 10 3.648438 L 10.25 3.539062 L 10.378906 3.480469 L 10.628906 3.355469 L 10.753906 3.289062 L 10.875 3.21875 L 11 3.148438 L 11.121094 3.074219 L 11.238281 2.996094 L 11.359375 2.917969 L 11.472656 2.835938 L 11.585938 2.75 L 11.695312 2.660156 L 11.804688 2.566406 L 11.910156 2.472656 L 12.011719 2.375 L 12.109375 2.273438 L 12.203125 2.171875 L 12.207031 2.164062 L 12.230469 2.140625 L 12.238281 2.136719 L 12.25 2.125 L 12.273438 2.113281 L 12.277344 2.105469 L 12.285156 2.101562 L 12.292969 2.101562 L 12.332031 2.082031 L 12.339844 2.082031 L 12.355469 2.074219 L 12.363281 2.074219 L 12.371094 2.070312 L 12.386719 2.070312 L 12.394531 2.066406 L 12.417969 2.066406 L 12.425781 2.0625 L 12.449219 2.0625 L 12.460938 2.066406 L 12.484375 2.066406 L 12.492188 2.070312 L 12.5 2.070312 L 12.507812 2.074219 L 12.523438 2.074219 L 12.535156 2.078125 L 12.550781 2.085938 L 12.558594 2.085938 L 12.582031 2.097656 L 12.585938 2.101562 L 12.617188 2.117188 L 12.628906 2.128906 L 12.636719 2.132812 L 12.648438 2.144531 L 12.65625 2.148438 L 12.671875 2.164062 L 12.675781 2.171875 L 12.683594 2.175781 L 12.691406 2.191406 L 12.703125 2.203125 L 12.722656 2.242188 L 12.726562 2.246094 L 12.738281 2.269531 L 12.738281 2.277344 L 12.742188 2.285156 L 12.742188 2.292969 L 12.757812 2.332031 L 12.769531 2.359375 L 12.792969 2.429688 L 12.8125 2.472656 L 12.832031 2.519531 L 12.855469 2.570312 L 12.878906 2.625 L 12.90625 2.679688 L 12.933594 2.742188 L 12.964844 2.804688 L 13 2.871094 L 13.078125 3.011719 L 13.164062 3.160156 L 13.210938 3.234375 L 13.261719 3.3125 L 13.371094 3.46875 L 13.429688 3.546875 L 13.492188 3.625 L 13.558594 3.707031 L 13.625 3.78125 L 13.695312 3.859375 L 13.769531 3.9375 L 13.84375 4.011719 L 13.921875 4.085938 L 14.007812 4.15625 L 14.089844 4.226562 L 14.179688 4.292969 L 14.269531 4.355469 L 14.367188 4.417969 L 14.464844 4.476562 L 14.566406 4.53125 L 14.667969 4.582031 L 14.777344 4.632812 L 14.777344 4.621094 L 14.78125 4.609375 L 14.78125 4.597656 L 14.785156 4.585938 L 14.785156 4.5625 L 14.789062 4.550781 L 14.789062 4.539062 L 14.792969 4.527344 L 14.792969 4.492188 L 14.796875 4.480469 L 14.796875 4.457031 L 14.800781 4.445312 L 14.800781 4.410156 L 14.804688 4.398438 L 14.804688 4.351562 L 14.808594 4.339844 L 14.808594 4.269531 L 14.8125 4.257812 L 14.8125 4.164062 L 14.808594 4.019531 L 14.800781 3.878906 L 14.785156 3.738281 L 14.765625 3.601562 L 14.742188 3.464844 L 14.710938 3.332031 L 14.675781 3.199219 L 14.632812 3.070312 L 14.585938 2.941406 L 14.535156 2.816406 L 14.480469 2.691406 L 14.421875 2.570312 L 14.355469 2.453125 L 14.214844 2.226562 L 14.136719 2.117188 L 14.054688 2.011719 L 13.96875 1.910156 L 13.878906 1.808594 L 13.691406 1.621094 L 13.589844 1.53125 L 13.488281 1.449219 L 13.378906 1.367188 L 13.269531 1.289062 L 13.042969 1.148438 L 12.921875 1.085938 L 12.800781 1.027344 L 12.675781 0.972656 L 12.550781 0.921875 L 12.421875 0.875 L 12.289062 0.835938 L 12.15625 0.800781 L 12.023438 0.769531 L 11.882812 0.742188 L 11.746094 0.722656 L 11.605469 0.710938 L 11.460938 0.703125 L 11.320312 0.699219 L 11.175781 0.703125 Z M 11.03125 0.710938 " clip-rule="nonzero"/></clipPath><linearGradient x1="250.39999" gradientTransform="matrix(0.0627182, 0, 0, 0.0622282, -0.707775, -1.016034)" xmlns:xlink="http://www.w3.org/1999/xlink" y1="16.920018" x2="250.39999" gradientUnits="userSpaceOnUse" y2="482.350025" xlink:type="simple" xlink:actuate="onLoad" id="linear-pattern-0" xlink:show="other"><stop stop-opacity="1" stop-color="rgb(17.298889%, 92.498779%, 100%)" offset="0"/><stop stop-opacity="1" stop-color="rgb(17.611694%, 92.3172%, 100%)" offset="0.00390625"/><stop stop-opacity="1" stop-color="rgb(17.926025%, 92.13562%, 100%)" offset="0.0078125"/><stop stop-opacity="1" stop-color="rgb(18.240356%, 91.952515%, 100%)" offset="0.0117188"/><stop stop-opacity="1" stop-color="rgb(18.554688%, 91.770935%, 100%)" offset="0.015625"/><stop stop-opacity="1" stop-color="rgb(18.867493%, 91.589355%, 100%)" offset="0.0195313"/><stop stop-opacity="1" stop-color="rgb(19.181824%, 91.407776%, 100%)" offset="0.0234375"/><stop stop-opacity="1" stop-color="rgb(19.494629%, 91.22467%, 100%)" offset="0.0273438"/><stop stop-opacity="1" stop-color="rgb(19.80896%, 91.043091%, 100%)" offset="0.03125"/><stop stop-opacity="1" stop-color="rgb(20.121765%, 90.859985%, 100%)" offset="0.0351563"/><stop stop-opacity="1" stop-color="rgb(20.436096%, 90.678406%, 100%)" offset="0.0390625"/><stop stop-opacity="1" stop-color="rgb(20.748901%, 90.496826%, 100%)" offset="0.0429688"/><stop stop-opacity="1" stop-color="rgb(21.063232%, 90.315247%, 100%)" offset="0.046875"/><stop stop-opacity="1" stop-color="rgb(21.376038%, 90.132141%, 100%)" offset="0.0507812"/><stop stop-opacity="1" stop-color="rgb(21.690369%, 89.950562%, 100%)" offset="0.0546875"/><stop stop-opacity="1" stop-color="rgb(22.003174%, 89.768982%, 100%)" offset="0.0585938"/><stop stop-opacity="1" stop-color="rgb(22.317505%, 89.587402%, 100%)" offset="0.0625"/><stop stop-opacity="1" stop-color="rgb(22.63031%, 89.404297%, 100%)" offset="0.0664063"/><stop stop-opacity="1" stop-color="rgb(22.944641%, 89.222717%, 100%)" offset="0.0703125"/><stop stop-opacity="1" stop-color="rgb(23.258972%, 89.039612%, 100%)" offset="0.0742188"/><stop stop-opacity="1" stop-color="rgb(23.573303%, 88.858032%, 100%)" offset="0.078125"/><stop stop-opacity="1" stop-color="rgb(23.886108%, 88.676453%, 100%)" offset="0.0820312"/><stop stop-opacity="1" stop-color="rgb(24.200439%, 88.494873%, 100%)" offset="0.0859375"/><stop stop-opacity="1" stop-color="rgb(24.513245%, 88.311768%, 100%)" offset="0.0898438"/><stop stop-opacity="1" stop-color="rgb(24.827576%, 88.130188%, 100%)" offset="0.09375"/><stop stop-opacity="1" stop-color="rgb(25.140381%, 87.948608%, 100%)" offset="0.0976563"/><stop stop-opacity="1" stop-color="rgb(25.454712%, 87.767029%, 100%)" offset="0.101563"/><stop stop-opacity="1" stop-color="rgb(25.767517%, 87.583923%, 100%)" offset="0.105469"/><stop stop-opacity="1" stop-color="rgb(26.081848%, 87.402344%, 100%)" offset="0.109375"/><stop stop-opacity="1" stop-color="rgb(26.394653%, 87.219238%, 100%)" offset="0.113281"/><stop stop-opacity="1" stop-color="rgb(26.708984%, 87.037659%, 100%)" offset="0.117188"/><stop stop-opacity="1" stop-color="rgb(27.02179%, 86.856079%, 100%)" offset="0.121094"/><stop stop-opacity="1" stop-color="rgb(27.336121%, 86.6745%, 100%)" offset="0.125"/><stop stop-opacity="1" stop-color="rgb(27.650452%, 86.491394%, 100%)" offset="0.128906"/><stop stop-opacity="1" stop-color="rgb(27.964783%, 86.309814%, 100%)" offset="0.132812"/><stop stop-opacity="1" stop-color="rgb(28.277588%, 86.128235%, 100%)" offset="0.136719"/><stop stop-opacity="1" stop-color="rgb(28.591919%, 85.946655%, 100%)" offset="0.140625"/><stop stop-opacity="1" stop-color="rgb(28.904724%, 85.76355%, 100%)" offset="0.144531"/><stop stop-opacity="1" stop-color="rgb(29.219055%, 85.58197%, 100%)" offset="0.148438"/><stop stop-opacity="1" stop-color="rgb(29.53186%, 85.398865%, 100%)" offset="0.152344"/><stop stop-opacity="1" stop-color="rgb(29.846191%, 85.217285%, 100%)" offset="0.15625"/><stop stop-opacity="1" stop-color="rgb(30.158997%, 85.035706%, 100%)" offset="0.160156"/><stop stop-opacity="1" stop-color="rgb(30.473328%, 84.854126%, 100%)" offset="0.164062"/><stop stop-opacity="1" stop-color="rgb(30.786133%, 84.671021%, 100%)" offset="0.167969"/><stop stop-opacity="1" stop-color="rgb(31.100464%, 84.489441%, 100%)" offset="0.171875"/><stop stop-opacity="1" stop-color="rgb(31.413269%, 84.307861%, 100%)" offset="0.175781"/><stop stop-opacity="1" stop-color="rgb(31.7276%, 84.126282%, 100%)" offset="0.179688"/><stop stop-opacity="1" stop-color="rgb(32.040405%, 83.943176%, 100%)" offset="0.183594"/><stop stop-opacity="1" stop-color="rgb(32.354736%, 83.761597%, 100%)" offset="0.1875"/><stop stop-opacity="1" stop-color="rgb(32.669067%, 83.578491%, 100%)" offset="0.191406"/><stop stop-opacity="1" stop-color="rgb(32.983398%, 83.396912%, 100%)" offset="0.195312"/><stop stop-opacity="1" stop-color="rgb(33.296204%, 83.215332%, 100%)" offset="0.199219"/><stop stop-opacity="1" stop-color="rgb(33.610535%, 83.033752%, 100%)" offset="0.203125"/><stop stop-opacity="1" stop-color="rgb(33.92334%, 82.850647%, 100%)" offset="0.207031"/><stop stop-opacity="1" stop-color="rgb(34.237671%, 82.669067%, 100%)" offset="0.210937"/><stop stop-opacity="1" stop-color="rgb(34.550476%, 82.487488%, 100%)" offset="0.214844"/><stop stop-opacity="1" stop-color="rgb(34.864807%, 82.305908%, 100%)" offset="0.21875"/><stop stop-opacity="1" stop-color="rgb(35.177612%, 82.122803%, 100%)" offset="0.222656"/><stop stop-opacity="1" stop-color="rgb(35.491943%, 81.941223%, 100%)" offset="0.226562"/><stop stop-opacity="1" stop-color="rgb(35.804749%, 81.759644%, 100%)" offset="0.230469"/><stop stop-opacity="1" stop-color="rgb(36.11908%, 81.578064%, 100%)" offset="0.234375"/><stop stop-opacity="1" stop-color="rgb(36.431885%, 81.394958%, 100%)" offset="0.238281"/><stop stop-opacity="1" stop-color="rgb(36.746216%, 81.213379%, 100%)" offset="0.242188"/><stop stop-opacity="1" stop-color="rgb(37.060547%, 81.030273%, 100%)" offset="0.246094"/><stop stop-opacity="1" stop-color="rgb(37.374878%, 80.848694%, 100%)" offset="0.25"/><stop stop-opacity="1" stop-color="rgb(37.687683%, 80.667114%, 100%)" offset="0.253906"/><stop stop-opacity="1" stop-color="rgb(38.002014%, 80.485535%, 100%)" offset="0.257812"/><stop stop-opacity="1" stop-color="rgb(38.314819%, 80.302429%, 100%)" offset="0.261719"/><stop stop-opacity="1" stop-color="rgb(38.62915%, 80.12085%, 100%)" offset="0.265625"/><stop stop-opacity="1" stop-color="rgb(38.941956%, 79.93927%, 100%)" offset="0.269531"/><stop stop-opacity="1" stop-color="rgb(39.256287%, 79.75769%, 100%)" offset="0.273438"/><stop stop-opacity="1" stop-color="rgb(39.569092%, 79.574585%, 100%)" offset="0.277344"/><stop stop-opacity="1" stop-color="rgb(39.883423%, 79.393005%, 100%)" offset="0.28125"/><stop stop-opacity="1" stop-color="rgb(40.196228%, 79.2099%, 100%)" offset="0.285156"/><stop stop-opacity="1" stop-color="rgb(40.510559%, 79.02832%, 100%)" offset="0.289062"/><stop stop-opacity="1" stop-color="rgb(40.823364%, 78.846741%, 100%)" offset="0.292969"/><stop stop-opacity="1" stop-color="rgb(41.137695%, 78.665161%, 100%)" offset="0.296875"/><stop stop-opacity="1" stop-color="rgb(41.452026%, 78.482056%, 100%)" offset="0.300781"/><stop stop-opacity="1" stop-color="rgb(41.766357%, 78.300476%, 100%)" offset="0.304688"/><stop stop-opacity="1" stop-color="rgb(42.079163%, 78.118896%, 100%)" offset="0.308594"/><stop stop-opacity="1" stop-color="rgb(42.393494%, 77.937317%, 100%)" offset="0.3125"/><stop stop-opacity="1" stop-color="rgb(42.706299%, 77.754211%, 100%)" offset="0.316406"/><stop stop-opacity="1" stop-color="rgb(43.02063%, 77.572632%, 100%)" offset="0.320313"/><stop stop-opacity="1" stop-color="rgb(43.333435%, 77.389526%, 100%)" offset="0.324219"/><stop stop-opacity="1" stop-color="rgb(43.647766%, 77.207947%, 100%)" offset="0.328125"/><stop stop-opacity="1" stop-color="rgb(43.960571%, 77.026367%, 100%)" offset="0.332031"/><stop stop-opacity="1" stop-color="rgb(44.274902%, 76.844788%, 100%)" offset="0.335938"/><stop stop-opacity="1" stop-color="rgb(44.587708%, 76.661682%, 100%)" offset="0.339844"/><stop stop-opacity="1" stop-color="rgb(44.902039%, 76.480103%, 100%)" offset="0.34375"/><stop stop-opacity="1" stop-color="rgb(45.214844%, 76.298523%, 100%)" offset="0.347656"/><stop stop-opacity="1" stop-color="rgb(45.529175%, 76.116943%, 100%)" offset="0.351563"/><stop stop-opacity="1" stop-color="rgb(45.84198%, 75.933838%, 100%)" offset="0.355469"/><stop stop-opacity="1" stop-color="rgb(46.156311%, 75.752258%, 100%)" offset="0.359375"/><stop stop-opacity="1" stop-color="rgb(46.470642%, 75.569153%, 100%)" offset="0.363281"/><stop stop-opacity="1" stop-color="rgb(46.784973%, 75.387573%, 100%)" offset="0.367188"/><stop stop-opacity="1" stop-color="rgb(47.097778%, 75.205994%, 100%)" offset="0.371094"/><stop stop-opacity="1" stop-color="rgb(47.412109%, 75.024414%, 100%)" offset="0.375"/><stop stop-opacity="1" stop-color="rgb(47.724915%, 74.841309%, 100%)" offset="0.378906"/><stop stop-opacity="1" stop-color="rgb(48.039246%, 74.659729%, 100%)" offset="0.382813"/><stop stop-opacity="1" stop-color="rgb(48.352051%, 74.478149%, 100%)" offset="0.386719"/><stop stop-opacity="1" stop-color="rgb(48.666382%, 74.29657%, 100%)" offset="0.390625"/><stop stop-opacity="1" stop-color="rgb(48.979187%, 74.113464%, 100%)" offset="0.394531"/><stop stop-opacity="1" stop-color="rgb(49.293518%, 73.931885%, 100%)" offset="0.398438"/><stop stop-opacity="1" stop-color="rgb(49.606323%, 73.750305%, 100%)" offset="0.402344"/><stop stop-opacity="1" stop-color="rgb(49.920654%, 73.568726%, 100%)" offset="0.40625"/><stop stop-opacity="1" stop-color="rgb(50.233459%, 73.38562%, 100%)" offset="0.410156"/><stop stop-opacity="1" stop-color="rgb(50.547791%, 73.204041%, 100%)" offset="0.414062"/><stop stop-opacity="1" stop-color="rgb(50.862122%, 73.020935%, 100%)" offset="0.417969"/><stop stop-opacity="1" stop-color="rgb(51.176453%, 72.839355%, 100%)" offset="0.421875"/><stop stop-opacity="1" stop-color="rgb(51.489258%, 72.657776%, 100%)" offset="0.425781"/><stop stop-opacity="1" stop-color="rgb(51.803589%, 72.476196%, 100%)" offset="0.429688"/><stop stop-opacity="1" stop-color="rgb(52.116394%, 72.293091%, 100%)" offset="0.433594"/><stop stop-opacity="1" stop-color="rgb(52.430725%, 72.111511%, 100%)" offset="0.4375"/><stop stop-opacity="1" stop-color="rgb(52.74353%, 71.929932%, 100%)" offset="0.441406"/><stop stop-opacity="1" stop-color="rgb(53.057861%, 71.748352%, 100%)" offset="0.445312"/><stop stop-opacity="1" stop-color="rgb(53.370667%, 71.565247%, 100%)" offset="0.449219"/><stop stop-opacity="1" stop-color="rgb(53.684998%, 71.383667%, 100%)" offset="0.453125"/><stop stop-opacity="1" stop-color="rgb(53.997803%, 71.200562%, 100%)" offset="0.457031"/><stop stop-opacity="1" stop-color="rgb(54.312134%, 71.018982%, 100%)" offset="0.460938"/><stop stop-opacity="1" stop-color="rgb(54.624939%, 70.837402%, 100%)" offset="0.464844"/><stop stop-opacity="1" stop-color="rgb(54.93927%, 70.655823%, 100%)" offset="0.46875"/><stop stop-opacity="1" stop-color="rgb(55.253601%, 70.472717%, 100%)" offset="0.472656"/><stop stop-opacity="1" stop-color="rgb(55.567932%, 70.291138%, 100%)" offset="0.476562"/><stop stop-opacity="1" stop-color="rgb(55.880737%, 70.109558%, 100%)" offset="0.480469"/><stop stop-opacity="1" stop-color="rgb(56.195068%, 69.927979%, 100%)" offset="0.484375"/><stop stop-opacity="1" stop-color="rgb(56.507874%, 69.744873%, 100%)" offset="0.488281"/><stop stop-opacity="1" stop-color="rgb(56.822205%, 69.563293%, 100%)" offset="0.492188"/><stop stop-opacity="1" stop-color="rgb(57.13501%, 69.380188%, 100%)" offset="0.496094"/><stop stop-opacity="1" stop-color="rgb(57.449341%, 69.198608%, 100%)" offset="0.5"/><stop stop-opacity="1" stop-color="rgb(57.762146%, 69.017029%, 100%)" offset="0.503906"/><stop stop-opacity="1" stop-color="rgb(58.076477%, 68.835449%, 100%)" offset="0.507812"/><stop stop-opacity="1" stop-color="rgb(58.389282%, 68.652344%, 100%)" offset="0.511719"/><stop stop-opacity="1" stop-color="rgb(58.703613%, 68.470764%, 100%)" offset="0.515625"/><stop stop-opacity="1" stop-color="rgb(59.016418%, 68.289185%, 100%)" offset="0.519531"/><stop stop-opacity="1" stop-color="rgb(59.33075%, 68.107605%, 100%)" offset="0.523438"/><stop stop-opacity="1" stop-color="rgb(59.643555%, 67.9245%, 100%)" offset="0.527344"/><stop stop-opacity="1" stop-color="rgb(59.957886%, 67.74292%, 100%)" offset="0.53125"/><stop stop-opacity="1" stop-color="rgb(60.272217%, 67.559814%, 100%)" offset="0.535156"/><stop stop-opacity="1" stop-color="rgb(60.586548%, 67.378235%, 100%)" offset="0.539062"/><stop stop-opacity="1" stop-color="rgb(60.899353%, 67.196655%, 100%)" offset="0.542969"/><stop stop-opacity="1" stop-color="rgb(61.213684%, 67.015076%, 100%)" offset="0.546875"/><stop stop-opacity="1" stop-color="rgb(61.526489%, 66.83197%, 100%)" offset="0.550781"/><stop stop-opacity="1" stop-color="rgb(61.84082%, 66.650391%, 100%)" offset="0.554688"/><stop stop-opacity="1" stop-color="rgb(62.153625%, 66.468811%, 100%)" offset="0.558594"/><stop stop-opacity="1" stop-color="rgb(62.467957%, 66.287231%, 100%)" offset="0.5625"/><stop stop-opacity="1" stop-color="rgb(62.780762%, 66.104126%, 100%)" offset="0.566406"/><stop stop-opacity="1" stop-color="rgb(63.095093%, 65.922546%, 100%)" offset="0.570312"/><stop stop-opacity="1" stop-color="rgb(63.407898%, 65.739441%, 100%)" offset="0.574219"/><stop stop-opacity="1" stop-color="rgb(63.722229%, 65.557861%, 100%)" offset="0.578125"/><stop stop-opacity="1" stop-color="rgb(64.035034%, 65.376282%, 100%)" offset="0.582031"/><stop stop-opacity="1" stop-color="rgb(64.349365%, 65.194702%, 100%)" offset="0.585938"/><stop stop-opacity="1" stop-color="rgb(64.663696%, 65.011597%, 100%)" offset="0.589844"/><stop stop-opacity="1" stop-color="rgb(64.978027%, 64.830017%, 100%)" offset="0.59375"/><stop stop-opacity="1" stop-color="rgb(65.290833%, 64.648438%, 100%)" offset="0.597656"/><stop stop-opacity="1" stop-color="rgb(65.605164%, 64.466858%, 100%)" offset="0.601562"/><stop stop-opacity="1" stop-color="rgb(65.917969%, 64.283752%, 100%)" offset="0.605469"/><stop stop-opacity="1" stop-color="rgb(66.2323%, 64.102173%, 100%)" offset="0.609375"/><stop stop-opacity="1" stop-color="rgb(66.545105%, 63.920593%, 100%)" offset="0.613281"/><stop stop-opacity="1" stop-color="rgb(66.859436%, 63.739014%, 100%)" offset="0.617188"/><stop stop-opacity="1" stop-color="rgb(67.172241%, 63.555908%, 100%)" offset="0.621094"/><stop stop-opacity="1" stop-color="rgb(67.486572%, 63.374329%, 100%)" offset="0.625"/><stop stop-opacity="1" stop-color="rgb(67.799377%, 63.191223%, 100%)" offset="0.628906"/><stop stop-opacity="1" stop-color="rgb(68.113708%, 63.009644%, 100%)" offset="0.632812"/><stop stop-opacity="1" stop-color="rgb(68.426514%, 62.828064%, 100%)" offset="0.636719"/><stop stop-opacity="1" stop-color="rgb(68.740845%, 62.646484%, 100%)" offset="0.640625"/><stop stop-opacity="1" stop-color="rgb(69.055176%, 62.463379%, 100%)" offset="0.644531"/><stop stop-opacity="1" stop-color="rgb(69.369507%, 62.281799%, 100%)" offset="0.648438"/><stop stop-opacity="1" stop-color="rgb(69.682312%, 62.10022%, 100%)" offset="0.652344"/><stop stop-opacity="1" stop-color="rgb(69.996643%, 61.91864%, 100%)" offset="0.65625"/><stop stop-opacity="1" stop-color="rgb(70.309448%, 61.735535%, 100%)" offset="0.660156"/><stop stop-opacity="1" stop-color="rgb(70.623779%, 61.553955%, 100%)" offset="0.664062"/><stop stop-opacity="1" stop-color="rgb(70.936584%, 61.37085%, 100%)" offset="0.667969"/><stop stop-opacity="1" stop-color="rgb(71.250916%, 61.18927%, 100%)" offset="0.671875"/><stop stop-opacity="1" stop-color="rgb(71.563721%, 61.00769%, 100%)" offset="0.675781"/><stop stop-opacity="1" stop-color="rgb(71.878052%, 60.826111%, 100%)" offset="0.679688"/><stop stop-opacity="1" stop-color="rgb(72.190857%, 60.643005%, 100%)" offset="0.683594"/><stop stop-opacity="1" stop-color="rgb(72.505188%, 60.461426%, 100%)" offset="0.6875"/><stop stop-opacity="1" stop-color="rgb(72.817993%, 60.279846%, 100%)" offset="0.691406"/><stop stop-opacity="1" stop-color="rgb(73.132324%, 60.098267%, 100%)" offset="0.695312"/><stop stop-opacity="1" stop-color="rgb(73.445129%, 59.915161%, 100%)" offset="0.699219"/><stop stop-opacity="1" stop-color="rgb(73.75946%, 59.733582%, 100%)" offset="0.703125"/><stop stop-opacity="1" stop-color="rgb(74.073792%, 59.550476%, 100%)" offset="0.707031"/><stop stop-opacity="1" stop-color="rgb(74.388123%, 59.368896%, 100%)" offset="0.710938"/><stop stop-opacity="1" stop-color="rgb(74.700928%, 59.187317%, 100%)" offset="0.714844"/><stop stop-opacity="1" stop-color="rgb(75.015259%, 59.005737%, 100%)" offset="0.71875"/><stop stop-opacity="1" stop-color="rgb(75.328064%, 58.822632%, 100%)" offset="0.722656"/><stop stop-opacity="1" stop-color="rgb(75.642395%, 58.641052%, 100%)" offset="0.726562"/><stop stop-opacity="1" stop-color="rgb(75.9552%, 58.459473%, 100%)" offset="0.730469"/><stop stop-opacity="1" stop-color="rgb(76.269531%, 58.277893%, 100%)" offset="0.734375"/><stop stop-opacity="1" stop-color="rgb(76.582336%, 58.094788%, 100%)" offset="0.738281"/><stop stop-opacity="1" stop-color="rgb(76.896667%, 57.913208%, 100%)" offset="0.742188"/><stop stop-opacity="1" stop-color="rgb(77.209473%, 57.730103%, 100%)" offset="0.746094"/><stop stop-opacity="1" stop-color="rgb(77.523804%, 57.548523%, 100%)" offset="0.75"/><stop stop-opacity="1" stop-color="rgb(77.836609%, 57.366943%, 100%)" offset="0.753906"/><stop stop-opacity="1" stop-color="rgb(78.15094%, 57.185364%, 100%)" offset="0.757813"/><stop stop-opacity="1" stop-color="rgb(78.465271%, 57.002258%, 100%)" offset="0.761719"/><stop stop-opacity="1" stop-color="rgb(78.779602%, 56.820679%, 100%)" offset="0.765625"/><stop stop-opacity="1" stop-color="rgb(79.092407%, 56.639099%, 100%)" offset="0.769531"/><stop stop-opacity="1" stop-color="rgb(79.406738%, 56.45752%, 100%)" offset="0.773438"/><stop stop-opacity="1" stop-color="rgb(79.719543%, 56.274414%, 100%)" offset="0.777344"/><stop stop-opacity="1" stop-color="rgb(80.033875%, 56.092834%, 100%)" offset="0.78125"/><stop stop-opacity="1" stop-color="rgb(80.34668%, 55.911255%, 100%)" offset="0.785156"/><stop stop-opacity="1" stop-color="rgb(80.661011%, 55.729675%, 100%)" offset="0.789063"/><stop stop-opacity="1" stop-color="rgb(80.973816%, 55.54657%, 100%)" offset="0.792969"/><stop stop-opacity="1" stop-color="rgb(81.288147%, 55.36499%, 100%)" offset="0.796875"/><stop stop-opacity="1" stop-color="rgb(81.600952%, 55.181885%, 100%)" offset="0.800781"/><stop stop-opacity="1" stop-color="rgb(81.915283%, 55.000305%, 100%)" offset="0.804688"/><stop stop-opacity="1" stop-color="rgb(82.228088%, 54.818726%, 100%)" offset="0.808594"/><stop stop-opacity="1" stop-color="rgb(82.542419%, 54.637146%, 100%)" offset="0.8125"/><stop stop-opacity="1" stop-color="rgb(82.85675%, 54.454041%, 100%)" offset="0.816406"/><stop stop-opacity="1" stop-color="rgb(83.171082%, 54.272461%, 100%)" offset="0.820313"/><stop stop-opacity="1" stop-color="rgb(83.483887%, 54.090881%, 100%)" offset="0.824219"/><stop stop-opacity="1" stop-color="rgb(83.798218%, 53.909302%, 100%)" offset="0.828125"/><stop stop-opacity="1" stop-color="rgb(84.111023%, 53.726196%, 100%)" offset="0.832031"/><stop stop-opacity="1" stop-color="rgb(84.425354%, 53.544617%, 100%)" offset="0.835938"/><stop stop-opacity="1" stop-color="rgb(84.738159%, 53.361511%, 100%)" offset="0.839844"/><stop stop-opacity="1" stop-color="rgb(85.05249%, 53.179932%, 100%)" offset="0.84375"/><stop stop-opacity="1" stop-color="rgb(85.365295%, 52.998352%, 100%)" offset="0.847656"/><stop stop-opacity="1" stop-color="rgb(85.679626%, 52.816772%, 100%)" offset="0.851562"/><stop stop-opacity="1" stop-color="rgb(85.992432%, 52.633667%, 100%)" offset="0.855469"/><stop stop-opacity="1" stop-color="rgb(86.306763%, 52.452087%, 100%)" offset="0.859375"/><stop stop-opacity="1" stop-color="rgb(86.619568%, 52.270508%, 100%)" offset="0.863281"/><stop stop-opacity="1" stop-color="rgb(86.933899%, 52.088928%, 100%)" offset="0.867188"/><stop stop-opacity="1" stop-color="rgb(87.246704%, 51.905823%, 100%)" offset="0.871094"/><stop stop-opacity="1" stop-color="rgb(87.561035%, 51.724243%, 100%)" offset="0.875"/><stop stop-opacity="1" stop-color="rgb(87.875366%, 51.541138%, 100%)" offset="0.878906"/><stop stop-opacity="1" stop-color="rgb(88.189697%, 51.359558%, 100%)" offset="0.882812"/><stop stop-opacity="1" stop-color="rgb(88.502502%, 51.177979%, 100%)" offset="0.886719"/><stop stop-opacity="1" stop-color="rgb(88.816833%, 50.996399%, 100%)" offset="0.890625"/><stop stop-opacity="1" stop-color="rgb(89.129639%, 50.813293%, 100%)" offset="0.894531"/><stop stop-opacity="1" stop-color="rgb(89.44397%, 50.631714%, 100%)" offset="0.898438"/><stop stop-opacity="1" stop-color="rgb(89.756775%, 50.450134%, 100%)" offset="0.902344"/><stop stop-opacity="1" stop-color="rgb(90.071106%, 50.268555%, 100%)" offset="0.90625"/><stop stop-opacity="1" stop-color="rgb(90.383911%, 50.085449%, 100%)" offset="0.910156"/><stop stop-opacity="1" stop-color="rgb(90.698242%, 49.90387%, 100%)" offset="0.914062"/><stop stop-opacity="1" stop-color="rgb(91.011047%, 49.720764%, 100%)" offset="0.917969"/><stop stop-opacity="1" stop-color="rgb(91.325378%, 49.539185%, 100%)" offset="0.921875"/><stop stop-opacity="1" stop-color="rgb(91.638184%, 49.357605%, 100%)" offset="0.925781"/><stop stop-opacity="1" stop-color="rgb(91.952515%, 49.176025%, 100%)" offset="0.929688"/><stop stop-opacity="1" stop-color="rgb(92.266846%, 48.99292%, 100%)" offset="0.933594"/><stop stop-opacity="1" stop-color="rgb(92.581177%, 48.81134%, 100%)" offset="0.9375"/><stop stop-opacity="1" stop-color="rgb(92.893982%, 48.629761%, 100%)" offset="0.941406"/><stop stop-opacity="1" stop-color="rgb(93.208313%, 48.448181%, 100%)" offset="0.945312"/><stop stop-opacity="1" stop-color="rgb(93.521118%, 48.265076%, 100%)" offset="0.949219"/><stop stop-opacity="1" stop-color="rgb(93.835449%, 48.083496%, 100%)" offset="0.953125"/><stop stop-opacity="1" stop-color="rgb(94.148254%, 47.900391%, 100%)" offset="0.957031"/><stop stop-opacity="1" stop-color="rgb(94.462585%, 47.718811%, 100%)" offset="0.960938"/><stop stop-opacity="1" stop-color="rgb(94.775391%, 47.537231%, 100%)" offset="0.964844"/><stop stop-opacity="1" stop-color="rgb(95.089722%, 47.355652%, 100%)" offset="0.96875"/><stop stop-opacity="1" stop-color="rgb(95.402527%, 47.172546%, 100%)" offset="0.972656"/><stop stop-opacity="1" stop-color="rgb(95.716858%, 46.990967%, 100%)" offset="0.976562"/><stop stop-opacity="1" stop-color="rgb(96.029663%, 46.809387%, 100%)" offset="0.980469"/><stop stop-opacity="1" stop-color="rgb(96.343994%, 46.627808%, 100%)" offset="0.984375"/><stop stop-opacity="1" stop-color="rgb(96.658325%, 46.444702%, 100%)" offset="0.988281"/><stop stop-opacity="1" stop-color="rgb(96.972656%, 46.263123%, 100%)" offset="0.992188"/><stop stop-opacity="1" stop-color="rgb(97.285461%, 46.081543%, 100%)" offset="0.996094"/><stop stop-opacity="1" stop-color="rgb(97.599792%, 45.899963%, 100%)" offset="1"/></linearGradient></defs><g clip-path="url(#clip-0)"><g clip-path="url(#clip-1)"><path fill="url(#linear-pattern-0)" d="M 0.511719 0.0351562 L 0.511719 29 L 29.480469 29 L 29.480469 0.0351562 Z M 0.511719 0.0351562 " fill-rule="nonzero"/></g></g></svg>