<?xml version="1.0" encoding="UTF-8"?><svg xmlns="http://www.w3.org/2000/svg" xmlns:xlink="http://www.w3.org/1999/xlink" contentScriptType="text/ecmascript" width="30" zoomAndPan="magnify" contentStyleType="text/css" viewBox="0 0 30 30.000001" height="30.000001" preserveAspectRatio="xMidYMid meet" version="1.0"><defs><clipPath id="clip-0"><path d="M 0.484375 0 L 29.515625 0 L 29.515625 29.03125 L 0.484375 29.03125 Z M 0.484375 0 " clip-rule="nonzero"/></clipPath><clipPath id="clip-1"><path d="M 17.339844 22.007812 C 17.339844 22.265625 17.132812 22.476562 16.875 22.476562 C 16.613281 22.476562 16.40625 22.265625 16.40625 22.007812 C 16.40625 21.75 16.613281 21.539062 16.875 21.539062 C 17.132812 21.539062 17.339844 21.75 17.339844 22.007812 Z M 15.46875 22.007812 C 15.46875 22.265625 15.257812 22.476562 15 22.476562 C 14.742188 22.476562 14.53125 22.265625 14.53125 22.007812 C 14.53125 21.75 14.742188 21.539062 15 21.539062 C 15.257812 21.539062 15.46875 21.75 15.46875 22.007812 Z M 13.59375 22.007812 C 13.59375 22.265625 13.386719 22.476562 13.125 22.476562 C 12.867188 22.476562 12.660156 22.265625 12.660156 22.007812 C 12.660156 21.75 12.867188 21.539062 13.125 21.539062 C 13.386719 21.539062 13.59375 21.75 13.59375 22.007812 Z M 28.578125 1.875 L 27.644531 1.875 C 26.609375 1.875 25.769531 2.710938 25.769531 3.746094 C 25.769531 4.78125 26.609375 5.621094 27.644531 5.621094 L 28.578125 5.621094 L 28.578125 5.835938 C 27.925781 6.425781 27.054688 6.675781 26.160156 6.503906 C 25.476562 6.375 24.863281 5.984375 24.441406 5.402344 C 24.109375 4.953125 23.558594 4.683594 22.964844 4.683594 L 7.035156 4.683594 C 6.441406 4.683594 5.886719 4.953125 5.558594 5.402344 C 5.03125 6.125 4.183594 6.554688 3.292969 6.554688 C 2.59375 6.554688 1.9375 6.300781 1.421875 5.835938 L 1.421875 5.621094 L 2.355469 5.621094 C 3.390625 5.621094 4.230469 4.78125 4.230469 3.746094 C 4.230469 2.710938 3.390625 1.875 2.355469 1.875 L 1.421875 1.875 L 1.421875 1.65625 C 2.074219 1.066406 2.945312 0.820312 3.839844 0.988281 C 4.523438 1.117188 5.136719 1.507812 5.558594 2.089844 C 5.890625 2.539062 6.441406 2.808594 7.035156 2.808594 L 22.964844 2.808594 C 23.558594 2.808594 24.113281 2.539062 24.441406 2.089844 C 24.96875 1.367188 25.816406 0.9375 26.707031 0.9375 C 27.40625 0.9375 28.066406 1.191406 28.578125 1.65625 Z M 24.832031 23.414062 L 5.167969 23.414062 C 4.390625 23.414062 3.761719 22.785156 3.761719 22.007812 L 3.761719 20.605469 L 26.238281 20.605469 L 26.238281 22.007812 C 26.238281 22.785156 25.609375 23.414062 24.832031 23.414062 Z M 19.214844 26.222656 L 10.785156 26.222656 L 10.785156 24.351562 L 19.214844 24.351562 Z M 21.085938 27.628906 L 21.085938 28.097656 L 8.914062 28.097656 L 8.914062 27.628906 C 8.914062 27.371094 9.121094 27.160156 9.378906 27.160156 L 20.621094 27.160156 C 20.878906 27.160156 21.085938 27.371094 21.085938 27.628906 Z M 12.84375 5.964844 C 12.480469 6.082031 12.132812 6.222656 11.800781 6.394531 L 10.605469 5.78125 L 8.136719 8.25 L 8.75 9.441406 C 8.578125 9.773438 8.4375 10.125 8.320312 10.488281 L 7.039062 10.894531 L 7.039062 14.390625 L 8.320312 14.800781 C 8.4375 15.160156 8.578125 15.511719 8.75 15.84375 L 8.136719 17.035156 L 10.605469 19.507812 L 11.800781 18.894531 C 12.128906 19.0625 12.480469 19.207031 12.84375 19.324219 L 12.953125 19.667969 L 3.761719 19.667969 L 3.761719 7.460938 C 4.773438 7.332031 5.707031 6.789062 6.316406 5.953125 C 6.46875 5.746094 6.734375 5.621094 7.035156 5.621094 L 12.953125 5.621094 Z M 16.0625 5.621094 L 16.414062 6.722656 L 16.65625 6.792969 C 17.121094 6.921875 17.5625 7.101562 17.96875 7.332031 L 18.1875 7.453125 L 19.214844 6.921875 L 20.71875 8.429688 L 20.1875 9.457031 L 20.3125 9.675781 C 20.539062 10.082031 20.722656 10.519531 20.851562 10.984375 L 20.921875 11.226562 L 22.023438 11.582031 L 22.023438 13.707031 L 20.921875 14.058594 L 20.851562 14.300781 C 20.722656 14.765625 20.539062 15.207031 20.3125 15.613281 L 20.1875 15.828125 L 20.71875 16.859375 L 19.726562 17.851562 C 19.148438 16.648438 18.046875 15.769531 16.71875 15.5 L 16.605469 15.273438 C 17.042969 15.035156 17.339844 14.578125 17.339844 14.046875 L 17.808594 14.046875 C 18.585938 14.046875 19.214844 13.417969 19.214844 12.644531 C 19.214844 12.386719 19.140625 12.148438 19.019531 11.941406 C 19.148438 11.558594 19.214844 11.164062 19.214844 10.757812 C 19.214844 8.957031 17.75 7.492188 15.949219 7.492188 L 14.050781 7.492188 C 12.25 7.492188 10.785156 8.957031 10.785156 10.757812 C 10.785156 11.164062 10.851562 11.558594 10.980469 11.941406 C 10.859375 12.148438 10.785156 12.386719 10.785156 12.644531 C 10.785156 13.417969 11.414062 14.046875 12.191406 14.046875 L 12.660156 14.046875 C 12.660156 14.578125 12.957031 15.035156 13.394531 15.273438 L 13.28125 15.5 C 11.953125 15.769531 10.851562 16.648438 10.273438 17.851562 L 9.28125 16.859375 L 9.8125 15.828125 L 9.6875 15.613281 C 9.460938 15.207031 9.277344 14.765625 9.148438 14.300781 L 9.078125 14.058594 L 7.976562 13.707031 L 7.976562 11.582031 L 9.078125 11.226562 L 9.148438 10.984375 C 9.277344 10.519531 9.460938 10.082031 9.6875 9.675781 L 9.8125 9.457031 L 9.28125 8.429688 L 10.785156 6.921875 L 11.8125 7.453125 L 12.03125 7.332031 C 12.4375 7.101562 12.878906 6.921875 13.34375 6.792969 L 13.585938 6.722656 L 13.9375 5.621094 Z M 17.15625 19.324219 C 17.519531 19.207031 17.871094 19.0625 18.199219 18.894531 L 19.394531 19.507812 L 21.863281 17.035156 L 21.25 15.84375 C 21.421875 15.511719 21.5625 15.160156 21.679688 14.800781 L 22.960938 14.390625 L 22.960938 10.894531 L 21.679688 10.488281 C 21.5625 10.125 21.421875 9.773438 21.25 9.441406 L 21.863281 8.25 L 19.394531 5.78125 L 18.199219 6.394531 C 17.867188 6.222656 17.519531 6.082031 17.15625 5.964844 L 17.046875 5.621094 L 22.964844 5.621094 C 23.261719 5.621094 23.53125 5.746094 23.683594 5.953125 C 24.25 6.730469 25.066406 7.253906 25.988281 7.425781 C 26.070312 7.441406 26.15625 7.445312 26.238281 7.457031 L 26.238281 19.667969 L 17.046875 19.667969 Z M 15.648438 15.453125 L 15.855469 15.871094 L 15 17.011719 L 14.144531 15.871094 L 14.351562 15.453125 Z M 13.59375 10.964844 C 13.59375 10.855469 13.679688 10.769531 13.789062 10.769531 C 13.839844 10.769531 13.890625 10.789062 13.925781 10.828125 L 14.144531 11.042969 C 14.761719 11.664062 15.550781 12.046875 16.40625 12.148438 L 16.40625 14.046875 C 16.40625 14.304688 16.195312 14.515625 15.9375 14.515625 L 14.0625 14.515625 C 13.804688 14.515625 13.59375 14.304688 13.59375 14.046875 Z M 17.339844 12.175781 L 17.808594 12.175781 C 18.066406 12.175781 18.277344 12.386719 18.277344 12.644531 C 18.277344 12.902344 18.066406 13.113281 17.808594 13.113281 L 17.339844 13.113281 Z M 12.660156 10.964844 L 12.660156 11.238281 L 12.191406 11.238281 C 12.046875 11.238281 11.910156 11.265625 11.777344 11.308594 C 11.742188 11.128906 11.722656 10.945312 11.722656 10.757812 C 11.722656 9.472656 12.765625 8.429688 14.050781 8.429688 L 15.949219 8.429688 C 17.234375 8.429688 18.277344 9.472656 18.277344 10.757812 C 18.277344 10.945312 18.257812 11.128906 18.226562 11.308594 C 18.089844 11.265625 17.953125 11.238281 17.808594 11.238281 L 16.875 11.238281 C 16.09375 11.238281 15.359375 10.933594 14.804688 10.382812 L 14.589844 10.164062 C 14.378906 9.953125 14.085938 9.832031 13.789062 9.832031 C 13.164062 9.832031 12.660156 10.339844 12.660156 10.964844 Z M 12.660156 13.113281 L 12.191406 13.113281 C 11.933594 13.113281 11.722656 12.902344 11.722656 12.644531 C 11.722656 12.386719 11.933594 12.175781 12.191406 12.175781 L 12.660156 12.175781 Z M 13.9375 19.667969 L 13.585938 18.5625 L 13.34375 18.496094 C 12.878906 18.363281 12.4375 18.183594 12.03125 17.953125 L 11.8125 17.832031 L 11.167969 18.164062 C 11.617188 17.292969 12.429688 16.660156 13.402344 16.441406 L 15 18.574219 L 16.597656 16.441406 C 17.570312 16.660156 18.382812 17.292969 18.832031 18.164062 L 18.1875 17.832031 L 17.96875 17.953125 C 17.5625 18.183594 17.121094 18.363281 16.65625 18.496094 L 16.414062 18.5625 L 16.0625 19.667969 Z M 26.707031 0 C 25.519531 0 24.386719 0.574219 23.683594 1.539062 C 23.53125 1.746094 23.265625 1.875 22.964844 1.875 L 7.035156 1.875 C 6.738281 1.875 6.46875 1.746094 6.316406 1.539062 C 5.75 0.761719 4.933594 0.238281 4.011719 0.0664062 C 2.761719 -0.167969 1.492188 0.230469 0.617188 1.128906 L 0.484375 1.265625 L 0.484375 2.808594 L 2.355469 2.808594 C 2.871094 2.808594 3.292969 3.230469 3.292969 3.746094 C 3.292969 4.261719 2.871094 4.683594 2.355469 4.683594 L 0.484375 4.683594 L 0.484375 6.226562 L 0.617188 6.363281 C 1.214844 6.976562 1.988281 7.355469 2.824219 7.460938 L 2.824219 22.007812 C 2.824219 23.300781 3.875 24.351562 5.167969 24.351562 L 9.847656 24.351562 L 9.847656 26.222656 L 9.378906 26.222656 C 8.605469 26.222656 7.976562 26.851562 7.976562 27.628906 L 7.976562 29.03125 L 22.023438 29.03125 L 22.023438 27.628906 C 22.023438 26.851562 21.394531 26.222656 20.621094 26.222656 L 20.152344 26.222656 L 20.152344 24.351562 L 24.832031 24.351562 C 26.125 24.351562 27.175781 23.300781 27.175781 22.007812 L 27.175781 7.453125 C 28.003906 7.347656 28.785156 6.972656 29.382812 6.363281 L 29.515625 6.226562 L 29.515625 4.683594 L 27.644531 4.683594 C 27.128906 4.683594 26.707031 4.261719 26.707031 3.746094 C 26.707031 3.230469 27.128906 2.808594 27.644531 2.808594 L 29.515625 2.808594 L 29.515625 1.265625 L 29.382812 1.128906 C 28.671875 0.402344 27.722656 0 26.707031 0 Z M 26.707031 0 " clip-rule="nonzero"/></clipPath><clipPath id="clip-2"><path d="M 17.339844 22.007812 C 17.339844 22.265625 17.132812 22.476562 16.875 22.476562 C 16.613281 22.476562 16.40625 22.265625 16.40625 22.007812 C 16.40625 21.75 16.613281 21.539062 16.875 21.539062 C 17.132812 21.539062 17.339844 21.75 17.339844 22.007812 Z M 15.46875 22.007812 C 15.46875 22.265625 15.257812 22.476562 15 22.476562 C 14.742188 22.476562 14.53125 22.265625 14.53125 22.007812 C 14.53125 21.75 14.742188 21.539062 15 21.539062 C 15.257812 21.539062 15.46875 21.75 15.46875 22.007812 Z M 13.59375 22.007812 C 13.59375 22.265625 13.386719 22.476562 13.125 22.476562 C 12.867188 22.476562 12.660156 22.265625 12.660156 22.007812 C 12.660156 21.75 12.867188 21.539062 13.125 21.539062 C 13.386719 21.539062 13.59375 21.75 13.59375 22.007812 Z M 28.578125 1.875 L 27.644531 1.875 C 26.609375 1.875 25.769531 2.710938 25.769531 3.746094 C 25.769531 4.78125 26.609375 5.621094 27.644531 5.621094 L 28.578125 5.621094 L 28.578125 5.835938 C 27.925781 6.425781 27.054688 6.675781 26.160156 6.503906 C 25.476562 6.375 24.863281 5.984375 24.441406 5.402344 C 24.109375 4.953125 23.558594 4.683594 22.964844 4.683594 L 7.035156 4.683594 C 6.441406 4.683594 5.886719 4.953125 5.558594 5.402344 C 5.03125 6.125 4.183594 6.554688 3.292969 6.554688 C 2.59375 6.554688 1.9375 6.300781 1.421875 5.835938 L 1.421875 5.621094 L 2.355469 5.621094 C 3.390625 5.621094 4.230469 4.78125 4.230469 3.746094 C 4.230469 2.710938 3.390625 1.875 2.355469 1.875 L 1.421875 1.875 L 1.421875 1.65625 C 2.074219 1.066406 2.945312 0.820312 3.839844 0.988281 C 4.523438 1.117188 5.136719 1.507812 5.558594 2.089844 C 5.890625 2.539062 6.441406 2.808594 7.035156 2.808594 L 22.964844 2.808594 C 23.558594 2.808594 24.113281 2.539062 24.441406 2.089844 C 24.96875 1.367188 25.816406 0.9375 26.707031 0.9375 C 27.40625 0.9375 28.066406 1.191406 28.578125 1.65625 Z M 24.832031 23.414062 L 5.167969 23.414062 C 4.390625 23.414062 3.761719 22.785156 3.761719 22.007812 L 3.761719 20.605469 L 26.238281 20.605469 L 26.238281 22.007812 C 26.238281 22.785156 25.609375 23.414062 24.832031 23.414062 Z M 19.214844 26.222656 L 10.785156 26.222656 L 10.785156 24.351562 L 19.214844 24.351562 Z M 21.085938 27.628906 L 21.085938 28.097656 L 8.914062 28.097656 L 8.914062 27.628906 C 8.914062 27.371094 9.121094 27.160156 9.378906 27.160156 L 20.621094 27.160156 C 20.878906 27.160156 21.085938 27.371094 21.085938 27.628906 Z M 12.84375 5.964844 C 12.480469 6.082031 12.132812 6.222656 11.800781 6.394531 L 10.605469 5.78125 L 8.136719 8.25 L 8.75 9.441406 C 8.578125 9.773438 8.4375 10.125 8.320312 10.488281 L 7.039062 10.894531 L 7.039062 14.390625 L 8.320312 14.800781 C 8.4375 15.160156 8.578125 15.511719 8.75 15.84375 L 8.136719 17.035156 L 10.605469 19.507812 L 11.800781 18.894531 C 12.128906 19.0625 12.480469 19.207031 12.84375 19.324219 L 12.953125 19.667969 L 3.761719 19.667969 L 3.761719 7.460938 C 4.773438 7.332031 5.707031 6.789062 6.316406 5.953125 C 6.46875 5.746094 6.734375 5.621094 7.035156 5.621094 L 12.953125 5.621094 Z M 16.0625 5.621094 L 16.414062 6.722656 L 16.65625 6.792969 C 17.121094 6.921875 17.5625 7.101562 17.96875 7.332031 L 18.1875 7.453125 L 19.214844 6.921875 L 20.71875 8.429688 L 20.1875 9.457031 L 20.3125 9.675781 C 20.539062 10.082031 20.722656 10.519531 20.851562 10.984375 L 20.921875 11.226562 L 22.023438 11.582031 L 22.023438 13.707031 L 20.921875 14.058594 L 20.851562 14.300781 C 20.722656 14.765625 20.539062 15.207031 20.3125 15.613281 L 20.1875 15.828125 L 20.71875 16.859375 L 19.726562 17.851562 C 19.148438 16.648438 18.046875 15.769531 16.71875 15.5 L 16.605469 15.273438 C 17.042969 15.035156 17.339844 14.578125 17.339844 14.046875 L 17.808594 14.046875 C 18.585938 14.046875 19.214844 13.417969 19.214844 12.644531 C 19.214844 12.386719 19.140625 12.148438 19.019531 11.941406 C 19.148438 11.558594 19.214844 11.164062 19.214844 10.757812 C 19.214844 8.957031 17.75 7.492188 15.949219 7.492188 L 14.050781 7.492188 C 12.25 7.492188 10.785156 8.957031 10.785156 10.757812 C 10.785156 11.164062 10.851562 11.558594 10.980469 11.941406 C 10.859375 12.148438 10.785156 12.386719 10.785156 12.644531 C 10.785156 13.417969 11.414062 14.046875 12.191406 14.046875 L 12.660156 14.046875 C 12.660156 14.578125 12.957031 15.035156 13.394531 15.273438 L 13.28125 15.5 C 11.953125 15.769531 10.851562 16.648438 10.273438 17.851562 L 9.28125 16.859375 L 9.8125 15.828125 L 9.6875 15.613281 C 9.460938 15.207031 9.277344 14.765625 9.148438 14.300781 L 9.078125 14.058594 L 7.976562 13.707031 L 7.976562 11.582031 L 9.078125 11.226562 L 9.148438 10.984375 C 9.277344 10.519531 9.460938 10.082031 9.6875 9.675781 L 9.8125 9.457031 L 9.28125 8.429688 L 10.785156 6.921875 L 11.8125 7.453125 L 12.03125 7.332031 C 12.4375 7.101562 12.878906 6.921875 13.34375 6.792969 L 13.585938 6.722656 L 13.9375 5.621094 Z M 17.15625 19.324219 C 17.519531 19.207031 17.871094 19.0625 18.199219 18.894531 L 19.394531 19.507812 L 21.863281 17.035156 L 21.25 15.84375 C 21.421875 15.511719 21.5625 15.160156 21.679688 14.800781 L 22.960938 14.390625 L 22.960938 10.894531 L 21.679688 10.488281 C 21.5625 10.125 21.421875 9.773438 21.25 9.441406 L 21.863281 8.25 L 19.394531 5.78125 L 18.199219 6.394531 C 17.867188 6.222656 17.519531 6.082031 17.15625 5.964844 L 17.046875 5.621094 L 22.964844 5.621094 C 23.261719 5.621094 23.53125 5.746094 23.683594 5.953125 C 24.25 6.730469 25.066406 7.253906 25.988281 7.425781 C 26.070312 7.441406 26.15625 7.445312 26.238281 7.457031 L 26.238281 19.667969 L 17.046875 19.667969 Z M 15.648438 15.453125 L 15.855469 15.871094 L 15 17.011719 L 14.144531 15.871094 L 14.351562 15.453125 Z M 13.59375 10.964844 C 13.59375 10.855469 13.679688 10.769531 13.789062 10.769531 C 13.839844 10.769531 13.890625 10.789062 13.925781 10.828125 L 14.144531 11.042969 C 14.761719 11.664062 15.550781 12.046875 16.40625 12.148438 L 16.40625 14.046875 C 16.40625 14.304688 16.195312 14.515625 15.9375 14.515625 L 14.0625 14.515625 C 13.804688 14.515625 13.59375 14.304688 13.59375 14.046875 Z M 17.339844 12.175781 L 17.808594 12.175781 C 18.066406 12.175781 18.277344 12.386719 18.277344 12.644531 C 18.277344 12.902344 18.066406 13.113281 17.808594 13.113281 L 17.339844 13.113281 Z M 12.660156 10.964844 L 12.660156 11.238281 L 12.191406 11.238281 C 12.046875 11.238281 11.910156 11.265625 11.777344 11.308594 C 11.742188 11.128906 11.722656 10.945312 11.722656 10.757812 C 11.722656 9.472656 12.765625 8.429688 14.050781 8.429688 L 15.949219 8.429688 C 17.234375 8.429688 18.277344 9.472656 18.277344 10.757812 C 18.277344 10.945312 18.257812 11.128906 18.226562 11.308594 C 18.089844 11.265625 17.953125 11.238281 17.808594 11.238281 L 16.875 11.238281 C 16.09375 11.238281 15.359375 10.933594 14.804688 10.382812 L 14.589844 10.164062 C 14.378906 9.953125 14.085938 9.832031 13.789062 9.832031 C 13.164062 9.832031 12.660156 10.339844 12.660156 10.964844 Z M 12.660156 13.113281 L 12.191406 13.113281 C 11.933594 13.113281 11.722656 12.902344 11.722656 12.644531 C 11.722656 12.386719 11.933594 12.175781 12.191406 12.175781 L 12.660156 12.175781 Z M 13.9375 19.667969 L 13.585938 18.5625 L 13.34375 18.496094 C 12.878906 18.363281 12.4375 18.183594 12.03125 17.953125 L 11.8125 17.832031 L 11.167969 18.164062 C 11.617188 17.292969 12.429688 16.660156 13.402344 16.441406 L 15 18.574219 L 16.597656 16.441406 C 17.570312 16.660156 18.382812 17.292969 18.832031 18.164062 L 18.1875 17.832031 L 17.96875 17.953125 C 17.5625 18.183594 17.121094 18.363281 16.65625 18.496094 L 16.414062 18.5625 L 16.0625 19.667969 Z M 26.707031 0 C 25.519531 0 24.386719 0.574219 23.683594 1.539062 C 23.53125 1.746094 23.265625 1.875 22.964844 1.875 L 7.035156 1.875 C 6.738281 1.875 6.46875 1.746094 6.316406 1.539062 C 5.75 0.761719 4.933594 0.238281 4.011719 0.0664062 C 2.761719 -0.167969 1.492188 0.230469 0.617188 1.128906 L 0.484375 1.265625 L 0.484375 2.808594 L 2.355469 2.808594 C 2.871094 2.808594 3.292969 3.230469 3.292969 3.746094 C 3.292969 4.261719 2.871094 4.683594 2.355469 4.683594 L 0.484375 4.683594 L 0.484375 6.226562 L 0.617188 6.363281 C 1.214844 6.976562 1.988281 7.355469 2.824219 7.460938 L 2.824219 22.007812 C 2.824219 23.300781 3.875 24.351562 5.167969 24.351562 L 9.847656 24.351562 L 9.847656 26.222656 L 9.378906 26.222656 C 8.605469 26.222656 7.976562 26.851562 7.976562 27.628906 L 7.976562 29.03125 L 22.023438 29.03125 L 22.023438 27.628906 C 22.023438 26.851562 21.394531 26.222656 20.621094 26.222656 L 20.152344 26.222656 L 20.152344 24.351562 L 24.832031 24.351562 C 26.125 24.351562 27.175781 23.300781 27.175781 22.007812 L 27.175781 7.453125 C 28.003906 7.347656 28.785156 6.972656 29.382812 6.363281 L 29.515625 6.226562 L 29.515625 4.683594 L 27.644531 4.683594 C 27.128906 4.683594 26.707031 4.261719 26.707031 3.746094 C 26.707031 3.230469 27.128906 2.808594 27.644531 2.808594 L 29.515625 2.808594 L 29.515625 1.265625 L 29.382812 1.128906 C 28.671875 0.402344 27.722656 0 26.707031 0 " clip-rule="nonzero"/></clipPath><linearGradient x1="0.000000051" gradientTransform="matrix(0, -29.032259, 29.032259, 0, 15, 29.032261)" xmlns:xlink="http://www.w3.org/1999/xlink" y1="0" x2="1" gradientUnits="userSpaceOnUse" y2="0" xlink:type="simple" xlink:actuate="onLoad" id="linear-pattern-0" xlink:show="other"><stop stop-opacity="1" stop-color="rgb(62.399292%, 18.399048%, 100%)" offset="0"/><stop stop-opacity="1" stop-color="rgb(62.199402%, 18.598938%, 100%)" offset="0.00390625"/><stop stop-opacity="1" stop-color="rgb(61.999512%, 18.798828%, 100%)" offset="0.0078125"/><stop stop-opacity="1" stop-color="rgb(61.799622%, 18.998718%, 99.798584%)" offset="0.0117187"/><stop stop-opacity="1" stop-color="rgb(61.599731%, 19.198608%, 99.598694%)" offset="0.015625"/><stop stop-opacity="1" stop-color="rgb(61.376953%, 19.419861%, 99.598694%)" offset="0.0195312"/><stop stop-opacity="1" stop-color="rgb(61.155701%, 19.642639%, 99.598694%)" offset="0.0234375"/><stop stop-opacity="1" stop-color="rgb(60.777283%, 19.833374%, 99.586487%)" offset="0.0273437"/><stop stop-opacity="1" stop-color="rgb(60.398865%, 20.024109%, 99.57428%)" offset="0.03125"/><stop stop-opacity="1" stop-color="rgb(60.198975%, 20.214844%, 99.386597%)" offset="0.0351562"/><stop stop-opacity="1" stop-color="rgb(59.999084%, 20.405579%, 99.198914%)" offset="0.0390625"/><stop stop-opacity="1" stop-color="rgb(59.805298%, 20.602417%, 99.198914%)" offset="0.0429687"/><stop stop-opacity="1" stop-color="rgb(59.611511%, 20.799255%, 99.198914%)" offset="0.046875"/><stop stop-opacity="1" stop-color="rgb(59.405518%, 20.999146%, 99.198914%)" offset="0.0507812"/><stop stop-opacity="1" stop-color="rgb(59.199524%, 21.199036%, 99.198914%)" offset="0.0546875"/><stop stop-opacity="1" stop-color="rgb(58.999634%, 21.398926%, 98.999023%)" offset="0.0585937"/><stop stop-opacity="1" stop-color="rgb(58.799744%, 21.598816%, 98.799133%)" offset="0.0625"/><stop stop-opacity="1" stop-color="rgb(58.583069%, 21.813965%, 98.799133%)" offset="0.0664062"/><stop stop-opacity="1" stop-color="rgb(58.36792%, 22.03064%, 98.799133%)" offset="0.0703125"/><stop stop-opacity="1" stop-color="rgb(57.983398%, 22.219849%, 98.79303%)" offset="0.0742188"/><stop stop-opacity="1" stop-color="rgb(57.598877%, 22.409058%, 98.786926%)" offset="0.078125"/><stop stop-opacity="1" stop-color="rgb(57.450867%, 22.554016%, 98.59314%)" offset="0.0859375"/><stop stop-opacity="1" stop-color="rgb(57.113647%, 22.898865%, 98.399353%)" offset="0.0898438"/><stop stop-opacity="1" stop-color="rgb(56.924438%, 23.098755%, 98.399353%)" offset="0.09375"/><stop stop-opacity="1" stop-color="rgb(56.733704%, 23.298645%, 98.399353%)" offset="0.0976562"/><stop stop-opacity="1" stop-color="rgb(56.542969%, 23.498535%, 98.399353%)" offset="0.101562"/><stop stop-opacity="1" stop-color="rgb(56.30188%, 23.716736%, 98.199463%)" offset="0.105469"/><stop stop-opacity="1" stop-color="rgb(56.062317%, 23.936462%, 97.999573%)" offset="0.109375"/><stop stop-opacity="1" stop-color="rgb(55.871582%, 24.127197%, 97.999573%)" offset="0.117187"/><stop stop-opacity="1" stop-color="rgb(55.290222%, 24.508667%, 97.799683%)" offset="0.121094"/><stop stop-opacity="1" stop-color="rgb(54.899597%, 24.699402%, 97.599792%)" offset="0.125"/><stop stop-opacity="1" stop-color="rgb(54.708862%, 24.899292%, 97.599792%)" offset="0.128906"/><stop stop-opacity="1" stop-color="rgb(54.518127%, 25.099182%, 97.599792%)" offset="0.132812"/><stop stop-opacity="1" stop-color="rgb(54.327393%, 25.299072%, 97.599792%)" offset="0.136719"/><stop stop-opacity="1" stop-color="rgb(54.136658%, 25.498962%, 97.599792%)" offset="0.140625"/><stop stop-opacity="1" stop-color="rgb(53.895569%, 25.720215%, 97.44873%)" offset="0.144531"/><stop stop-opacity="1" stop-color="rgb(53.656006%, 25.942993%, 97.299194%)" offset="0.148438"/><stop stop-opacity="1" stop-color="rgb(53.465271%, 26.133728%, 97.299194%)" offset="0.15625"/><stop stop-opacity="1" stop-color="rgb(53.083801%, 26.515198%, 97.299194%)" offset="0.164062"/><stop stop-opacity="1" stop-color="rgb(52.696228%, 26.902771%, 97.105408%)" offset="0.167969"/><stop stop-opacity="1" stop-color="rgb(52.49939%, 27.099609%, 96.911621%)" offset="0.171875"/><stop stop-opacity="1" stop-color="rgb(52.165222%, 27.2995%, 96.905518%)" offset="0.175781"/><stop stop-opacity="1" stop-color="rgb(51.831055%, 27.49939%, 96.899414%)" offset="0.179688"/><stop stop-opacity="1" stop-color="rgb(51.64032%, 27.648926%, 96.899414%)" offset="0.1875"/><stop stop-opacity="1" stop-color="rgb(51.223755%, 28.015137%, 96.699524%)" offset="0.191406"/><stop stop-opacity="1" stop-color="rgb(50.999451%, 28.230286%, 96.499634%)" offset="0.195312"/><stop stop-opacity="1" stop-color="rgb(50.793457%, 28.421021%, 96.499634%)" offset="0.199219"/><stop stop-opacity="1" stop-color="rgb(50.587463%, 28.611755%, 96.499634%)" offset="0.203125"/><stop stop-opacity="1" stop-color="rgb(50.393677%, 28.805542%, 96.499634%)" offset="0.210938"/><stop stop-opacity="1" stop-color="rgb(49.998474%, 29.199219%, 96.311951%)" offset="0.214844"/><stop stop-opacity="1" stop-color="rgb(49.798584%, 29.399109%, 96.124268%)" offset="0.21875"/><stop stop-opacity="1" stop-color="rgb(49.420166%, 29.598999%, 96.112061%)" offset="0.222656"/><stop stop-opacity="1" stop-color="rgb(49.043274%, 29.798889%, 96.099854%)" offset="0.226562"/><stop stop-opacity="1" stop-color="rgb(48.820496%, 30.01709%, 96.099854%)" offset="0.230469"/><stop stop-opacity="1" stop-color="rgb(48.599243%, 30.236816%, 96.099854%)" offset="0.234375"/><stop stop-opacity="1" stop-color="rgb(48.399353%, 30.427551%, 95.898438%)" offset="0.238281"/><stop stop-opacity="1" stop-color="rgb(48.199463%, 30.618286%, 95.698547%)" offset="0.242188"/><stop stop-opacity="1" stop-color="rgb(47.999573%, 30.809021%, 95.698547%)" offset="0.246094"/><stop stop-opacity="1" stop-color="rgb(47.799683%, 30.999756%, 95.698547%)" offset="0.25"/><stop stop-opacity="1" stop-color="rgb(47.648621%, 31.390381%, 95.698547%)" offset="0.253906"/><stop stop-opacity="1" stop-color="rgb(47.499084%, 31.781006%, 95.698547%)" offset="0.257812"/><stop stop-opacity="1" stop-color="rgb(47.299194%, 31.971741%, 95.498657%)" offset="0.261719"/><stop stop-opacity="1" stop-color="rgb(47.099304%, 32.162476%, 95.298767%)" offset="0.265625"/><stop stop-opacity="1" stop-color="rgb(46.876526%, 32.330322%, 95.298767%)" offset="0.269531"/><stop stop-opacity="1" stop-color="rgb(46.655273%, 32.499695%, 95.298767%)" offset="0.273437"/><stop stop-opacity="1" stop-color="rgb(46.276855%, 32.699585%, 95.28656%)" offset="0.277344"/><stop stop-opacity="1" stop-color="rgb(45.899963%, 32.899475%, 95.274353%)" offset="0.28125"/><stop stop-opacity="1" stop-color="rgb(45.698547%, 33.099365%, 95.08667%)" offset="0.285156"/><stop stop-opacity="1" stop-color="rgb(45.498657%, 33.299255%, 94.898987%)" offset="0.289062"/><stop stop-opacity="1" stop-color="rgb(45.304871%, 33.493042%, 94.898987%)" offset="0.296875"/><stop stop-opacity="1" stop-color="rgb(44.90509%, 33.877563%, 94.898987%)" offset="0.300781"/><stop stop-opacity="1" stop-color="rgb(44.699097%, 34.068298%, 94.898987%)" offset="0.304688"/><stop stop-opacity="1" stop-color="rgb(44.499207%, 34.259033%, 94.699097%)" offset="0.308594"/><stop stop-opacity="1" stop-color="rgb(44.299316%, 34.449768%, 94.499207%)" offset="0.3125"/><stop stop-opacity="1" stop-color="rgb(44.082642%, 34.674072%, 94.499207%)" offset="0.316406"/><stop stop-opacity="1" stop-color="rgb(43.867493%, 34.899902%, 94.499207%)" offset="0.320312"/><stop stop-opacity="1" stop-color="rgb(43.482971%, 35.099792%, 94.493103%)" offset="0.324219"/><stop stop-opacity="1" stop-color="rgb(43.099976%, 35.299683%, 94.487%)" offset="0.328125"/><stop stop-opacity="1" stop-color="rgb(42.901611%, 35.496521%, 94.293213%)" offset="0.332031"/><stop stop-opacity="1" stop-color="rgb(42.704773%, 35.693359%, 94.099426%)" offset="0.335937"/><stop stop-opacity="1" stop-color="rgb(42.56134%, 35.884094%, 94.099426%)" offset="0.34375"/><stop stop-opacity="1" stop-color="rgb(42.230225%, 36.264038%, 94.099426%)" offset="0.351562"/><stop stop-opacity="1" stop-color="rgb(41.801453%, 36.676025%, 93.899536%)" offset="0.355469"/><stop stop-opacity="1" stop-color="rgb(41.56189%, 36.898804%, 93.699646%)" offset="0.359375"/><stop stop-opacity="1" stop-color="rgb(41.371155%, 37.098694%, 93.699646%)" offset="0.363281"/><stop stop-opacity="1" stop-color="rgb(41.18042%, 37.298584%, 93.699646%)" offset="0.367188"/><stop stop-opacity="1" stop-color="rgb(40.789795%, 37.44812%, 93.499756%)" offset="0.371094"/><stop stop-opacity="1" stop-color="rgb(40.39917%, 37.599182%, 93.299866%)" offset="0.375"/><stop stop-opacity="1" stop-color="rgb(40.208435%, 37.789917%, 93.299866%)" offset="0.382812"/><stop stop-opacity="1" stop-color="rgb(39.826965%, 38.171387%, 93.299866%)" offset="0.390625"/><stop stop-opacity="1" stop-color="rgb(39.395142%, 38.580322%, 93.09845%)" offset="0.394531"/><stop stop-opacity="1" stop-color="rgb(39.155579%, 38.798523%, 92.89856%)" offset="0.398437"/><stop stop-opacity="1" stop-color="rgb(38.964844%, 38.998413%, 92.89856%)" offset="0.402344"/><stop stop-opacity="1" stop-color="rgb(38.774109%, 39.199829%, 92.89856%)" offset="0.40625"/><stop stop-opacity="1" stop-color="rgb(38.583374%, 39.399719%, 92.89856%)" offset="0.410156"/><stop stop-opacity="1" stop-color="rgb(38.392639%, 39.599609%, 92.89856%)" offset="0.414062"/><stop stop-opacity="1" stop-color="rgb(38.195801%, 39.793396%, 92.704773%)" offset="0.417969"/><stop stop-opacity="1" stop-color="rgb(37.998962%, 39.987183%, 92.510986%)" offset="0.421875"/><stop stop-opacity="1" stop-color="rgb(37.660217%, 40.177917%, 92.504883%)" offset="0.425781"/><stop stop-opacity="1" stop-color="rgb(37.322998%, 40.368652%, 92.498779%)" offset="0.429687"/><stop stop-opacity="1" stop-color="rgb(37.135315%, 40.557861%, 92.498779%)" offset="0.4375"/><stop stop-opacity="1" stop-color="rgb(36.723328%, 40.9729%, 92.349243%)" offset="0.441406"/><stop stop-opacity="1" stop-color="rgb(36.499023%, 41.19873%, 92.199707%)" offset="0.445312"/><stop stop-opacity="1" stop-color="rgb(36.29303%, 41.398621%, 92.199707%)" offset="0.449219"/><stop stop-opacity="1" stop-color="rgb(36.087036%, 41.598511%, 92.199707%)" offset="0.453125"/><stop stop-opacity="1" stop-color="rgb(35.89325%, 41.795349%, 92.199707%)" offset="0.457031"/><stop stop-opacity="1" stop-color="rgb(35.699463%, 41.993713%, 92.199707%)" offset="0.460937"/><stop stop-opacity="1" stop-color="rgb(35.499573%, 42.182922%, 92.012024%)" offset="0.464844"/><stop stop-opacity="1" stop-color="rgb(35.299683%, 42.373657%, 91.824341%)" offset="0.46875"/><stop stop-opacity="1" stop-color="rgb(34.921265%, 42.520142%, 91.812134%)" offset="0.472656"/><stop stop-opacity="1" stop-color="rgb(34.542847%, 42.666626%, 91.799927%)" offset="0.476562"/><stop stop-opacity="1" stop-color="rgb(34.320068%, 42.883301%, 91.799927%)" offset="0.480469"/><stop stop-opacity="1" stop-color="rgb(34.098816%, 43.099976%, 91.799927%)" offset="0.484375"/><stop stop-opacity="1" stop-color="rgb(33.898926%, 43.299866%, 91.598511%)" offset="0.488281"/><stop stop-opacity="1" stop-color="rgb(33.699036%, 43.499756%, 91.398621%)" offset="0.492187"/><stop stop-opacity="1" stop-color="rgb(33.499146%, 43.699646%, 91.398621%)" offset="0.496094"/><stop stop-opacity="1" stop-color="rgb(33.299255%, 43.899536%, 91.398621%)" offset="0.5"/><stop stop-opacity="1" stop-color="rgb(33.099365%, 44.099426%, 91.398621%)" offset="0.503906"/><stop stop-opacity="1" stop-color="rgb(32.899475%, 44.299316%, 91.398621%)" offset="0.507812"/><stop stop-opacity="1" stop-color="rgb(32.699585%, 44.499207%, 91.19873%)" offset="0.511719"/><stop stop-opacity="1" stop-color="rgb(32.499695%, 44.699097%, 90.99884%)" offset="0.515625"/><stop stop-opacity="1" stop-color="rgb(32.327271%, 44.920349%, 90.99884%)" offset="0.519531"/><stop stop-opacity="1" stop-color="rgb(32.154846%, 45.143127%, 90.99884%)" offset="0.523437"/><stop stop-opacity="1" stop-color="rgb(31.776428%, 45.333862%, 90.986633%)" offset="0.527344"/><stop stop-opacity="1" stop-color="rgb(31.399536%, 45.524597%, 90.974426%)" offset="0.53125"/><stop stop-opacity="1" stop-color="rgb(31.199646%, 45.715332%, 90.786743%)" offset="0.535156"/><stop stop-opacity="1" stop-color="rgb(30.999756%, 45.906067%, 90.59906%)" offset="0.539062"/><stop stop-opacity="1" stop-color="rgb(30.805969%, 46.102905%, 90.59906%)" offset="0.542969"/><stop stop-opacity="1" stop-color="rgb(30.612183%, 46.299744%, 90.59906%)" offset="0.546875"/><stop stop-opacity="1" stop-color="rgb(30.404663%, 46.499634%, 90.59906%)" offset="0.550781"/><stop stop-opacity="1" stop-color="rgb(30.198669%, 46.699524%, 90.59906%)" offset="0.554688"/><stop stop-opacity="1" stop-color="rgb(29.998779%, 46.899414%, 90.39917%)" offset="0.558594"/><stop stop-opacity="1" stop-color="rgb(29.798889%, 47.099304%, 90.19928%)" offset="0.5625"/><stop stop-opacity="1" stop-color="rgb(29.58374%, 47.309875%, 90.19928%)" offset="0.566406"/><stop stop-opacity="1" stop-color="rgb(29.368591%, 47.521973%, 90.19928%)" offset="0.570312"/><stop stop-opacity="1" stop-color="rgb(28.98407%, 47.666931%, 90.193176%)" offset="0.574219"/><stop stop-opacity="1" stop-color="rgb(28.599548%, 47.81189%, 90.187073%)" offset="0.578125"/><stop stop-opacity="1" stop-color="rgb(28.40271%, 48.005676%, 89.993286%)" offset="0.582031"/><stop stop-opacity="1" stop-color="rgb(28.205872%, 48.199463%, 89.7995%)" offset="0.585938"/><stop stop-opacity="1" stop-color="rgb(28.015137%, 48.399353%, 89.7995%)" offset="0.589844"/><stop stop-opacity="1" stop-color="rgb(27.824402%, 48.599243%, 89.7995%)" offset="0.59375"/><stop stop-opacity="1" stop-color="rgb(27.677917%, 48.799133%, 89.7995%)" offset="0.597656"/><stop stop-opacity="1" stop-color="rgb(27.531433%, 48.999023%, 89.7995%)" offset="0.601562"/><stop stop-opacity="1" stop-color="rgb(27.296448%, 49.217224%, 89.599609%)" offset="0.605469"/><stop stop-opacity="1" stop-color="rgb(27.061462%, 49.436951%, 89.399719%)" offset="0.609375"/><stop stop-opacity="1" stop-color="rgb(26.870728%, 49.627686%, 89.399719%)" offset="0.617188"/><stop stop-opacity="1" stop-color="rgb(26.289368%, 50.009155%, 89.199829%)" offset="0.621094"/><stop stop-opacity="1" stop-color="rgb(25.898743%, 50.19989%, 88.999939%)" offset="0.625"/><stop stop-opacity="1" stop-color="rgb(25.708008%, 50.39978%, 88.999939%)" offset="0.628906"/><stop stop-opacity="1" stop-color="rgb(25.517273%, 50.59967%, 88.999939%)" offset="0.632812"/><stop stop-opacity="1" stop-color="rgb(25.326538%, 50.799561%, 88.999939%)" offset="0.636719"/><stop stop-opacity="1" stop-color="rgb(25.137329%, 50.999451%, 88.999939%)" offset="0.640625"/><stop stop-opacity="1" stop-color="rgb(24.89624%, 51.220703%, 88.798523%)" offset="0.644531"/><stop stop-opacity="1" stop-color="rgb(24.655151%, 51.443481%, 88.598633%)" offset="0.648437"/><stop stop-opacity="1" stop-color="rgb(24.464417%, 51.634216%, 88.598633%)" offset="0.65625"/><stop stop-opacity="1" stop-color="rgb(24.082947%, 52.01416%, 88.598633%)" offset="0.664062"/><stop stop-opacity="1" stop-color="rgb(23.695374%, 52.351379%, 88.404846%)" offset="0.667969"/><stop stop-opacity="1" stop-color="rgb(23.498535%, 52.49939%, 88.21106%)" offset="0.671875"/><stop stop-opacity="1" stop-color="rgb(23.114014%, 52.69928%, 88.204956%)" offset="0.675781"/><stop stop-opacity="1" stop-color="rgb(22.731018%, 52.89917%, 88.198853%)" offset="0.679687"/><stop stop-opacity="1" stop-color="rgb(22.583008%, 53.09906%, 88.198853%)" offset="0.683594"/><stop stop-opacity="1" stop-color="rgb(22.436523%, 53.29895%, 88.198853%)" offset="0.6875"/><stop stop-opacity="1" stop-color="rgb(22.216797%, 53.514099%, 87.998962%)" offset="0.691406"/><stop stop-opacity="1" stop-color="rgb(21.998596%, 53.730774%, 87.799072%)" offset="0.695312"/><stop stop-opacity="1" stop-color="rgb(21.792603%, 53.921509%, 87.799072%)" offset="0.699219"/><stop stop-opacity="1" stop-color="rgb(21.586609%, 54.112244%, 87.799072%)" offset="0.703125"/><stop stop-opacity="1" stop-color="rgb(21.392822%, 54.30603%, 87.799072%)" offset="0.710938"/><stop stop-opacity="1" stop-color="rgb(20.999146%, 54.699707%, 87.658691%)" offset="0.714844"/><stop stop-opacity="1" stop-color="rgb(20.799255%, 54.899597%, 87.518311%)" offset="0.71875"/><stop stop-opacity="1" stop-color="rgb(20.420837%, 55.099487%, 87.509155%)" offset="0.722656"/><stop stop-opacity="1" stop-color="rgb(20.042419%, 55.299377%, 87.5%)" offset="0.726562"/><stop stop-opacity="1" stop-color="rgb(19.821167%, 55.517578%, 87.5%)" offset="0.730469"/><stop stop-opacity="1" stop-color="rgb(19.599915%, 55.737305%, 87.5%)" offset="0.734375"/><stop stop-opacity="1" stop-color="rgb(19.398499%, 55.926514%, 87.298584%)" offset="0.738281"/><stop stop-opacity="1" stop-color="rgb(19.198608%, 56.117249%, 87.098694%)" offset="0.742187"/><stop stop-opacity="1" stop-color="rgb(18.998718%, 56.307983%, 87.098694%)" offset="0.746094"/><stop stop-opacity="1" stop-color="rgb(18.798828%, 56.498718%, 87.098694%)" offset="0.75"/><stop stop-opacity="1" stop-color="rgb(18.598938%, 56.889343%, 87.098694%)" offset="0.753906"/><stop stop-opacity="1" stop-color="rgb(18.399048%, 57.279968%, 87.098694%)" offset="0.757812"/><stop stop-opacity="1" stop-color="rgb(18.199158%, 57.424927%, 86.898804%)" offset="0.761719"/><stop stop-opacity="1" stop-color="rgb(17.999268%, 57.571411%, 86.698914%)" offset="0.765625"/><stop stop-opacity="1" stop-color="rgb(17.782593%, 57.785034%, 86.698914%)" offset="0.769531"/><stop stop-opacity="1" stop-color="rgb(17.565918%, 57.998657%, 86.698914%)" offset="0.773437"/><stop stop-opacity="1" stop-color="rgb(17.23175%, 58.198547%, 86.686707%)" offset="0.777344"/><stop stop-opacity="1" stop-color="rgb(16.899109%, 58.399963%, 86.6745%)" offset="0.78125"/><stop stop-opacity="1" stop-color="rgb(16.699219%, 58.599854%, 86.486816%)" offset="0.785156"/><stop stop-opacity="1" stop-color="rgb(16.499329%, 58.799744%, 86.299133%)" offset="0.789062"/><stop stop-opacity="1" stop-color="rgb(16.305542%, 58.99353%, 86.299133%)" offset="0.796875"/><stop stop-opacity="1" stop-color="rgb(15.905762%, 59.376526%, 86.299133%)" offset="0.800781"/><stop stop-opacity="1" stop-color="rgb(15.699768%, 59.567261%, 86.299133%)" offset="0.804687"/><stop stop-opacity="1" stop-color="rgb(15.499878%, 59.757996%, 86.099243%)" offset="0.808594"/><stop stop-opacity="1" stop-color="rgb(15.299988%, 59.94873%, 85.899353%)" offset="0.8125"/><stop stop-opacity="1" stop-color="rgb(15.083313%, 60.173035%, 85.899353%)" offset="0.816406"/><stop stop-opacity="1" stop-color="rgb(14.868164%, 60.398865%, 85.899353%)" offset="0.820312"/><stop stop-opacity="1" stop-color="rgb(14.483643%, 60.598755%, 85.89325%)" offset="0.824219"/><stop stop-opacity="1" stop-color="rgb(14.099121%, 60.798645%, 85.887146%)" offset="0.828125"/><stop stop-opacity="1" stop-color="rgb(13.902283%, 60.995483%, 85.693359%)" offset="0.832031"/><stop stop-opacity="1" stop-color="rgb(13.705444%, 61.192322%, 85.499573%)" offset="0.835938"/><stop stop-opacity="1" stop-color="rgb(13.514709%, 61.383057%, 85.499573%)" offset="0.84375"/><stop stop-opacity="1" stop-color="rgb(13.13324%, 61.764526%, 85.499573%)" offset="0.851562"/><stop stop-opacity="1" stop-color="rgb(12.705994%, 62.176514%, 85.299683%)" offset="0.855469"/><stop stop-opacity="1" stop-color="rgb(12.471008%, 62.399292%, 85.099792%)" offset="0.859375"/><stop stop-opacity="1" stop-color="rgb(12.32605%, 62.548828%, 85.099792%)" offset="0.867187"/><stop stop-opacity="1" stop-color="rgb(11.790466%, 62.89978%, 84.898376%)" offset="0.871094"/><stop stop-opacity="1" stop-color="rgb(11.399841%, 63.09967%, 84.698486%)" offset="0.875"/><stop stop-opacity="1" stop-color="rgb(11.209106%, 63.290405%, 84.698486%)" offset="0.882812"/><stop stop-opacity="1" stop-color="rgb(10.827637%, 63.670349%, 84.698486%)" offset="0.890625"/><stop stop-opacity="1" stop-color="rgb(10.395813%, 64.079285%, 84.498596%)" offset="0.894531"/><stop stop-opacity="1" stop-color="rgb(10.15625%, 64.299011%, 84.298706%)" offset="0.898438"/><stop stop-opacity="1" stop-color="rgb(9.965515%, 64.498901%, 84.298706%)" offset="0.902344"/><stop stop-opacity="1" stop-color="rgb(9.77478%, 64.698792%, 84.298706%)" offset="0.90625"/><stop stop-opacity="1" stop-color="rgb(9.584045%, 64.898682%, 84.298706%)" offset="0.910156"/><stop stop-opacity="1" stop-color="rgb(9.393311%, 65.098572%, 84.298706%)" offset="0.914062"/><stop stop-opacity="1" stop-color="rgb(9.196472%, 65.292358%, 84.104919%)" offset="0.917969"/><stop stop-opacity="1" stop-color="rgb(8.999634%, 65.486145%, 83.911133%)" offset="0.921875"/><stop stop-opacity="1" stop-color="rgb(8.615112%, 65.67688%, 83.905029%)" offset="0.925781"/><stop stop-opacity="1" stop-color="rgb(8.230591%, 65.867615%, 83.898926%)" offset="0.929688"/><stop stop-opacity="1" stop-color="rgb(8.039856%, 66.05835%, 83.898926%)" offset="0.9375"/><stop stop-opacity="1" stop-color="rgb(7.673645%, 66.473389%, 83.699036%)" offset="0.941406"/><stop stop-opacity="1" stop-color="rgb(7.499695%, 66.699219%, 83.499146%)" offset="0.945312"/><stop stop-opacity="1" stop-color="rgb(7.292175%, 66.899109%, 83.499146%)" offset="0.949219"/><stop stop-opacity="1" stop-color="rgb(7.086182%, 67.098999%, 83.499146%)" offset="0.953125"/><stop stop-opacity="1" stop-color="rgb(6.892395%, 67.295837%, 83.499146%)" offset="0.957031"/><stop stop-opacity="1" stop-color="rgb(6.698608%, 67.492676%, 83.499146%)" offset="0.960938"/><stop stop-opacity="1" stop-color="rgb(6.498718%, 67.636108%, 83.311462%)" offset="0.964844"/><stop stop-opacity="1" stop-color="rgb(6.298828%, 67.781067%, 83.123779%)" offset="0.96875"/><stop stop-opacity="1" stop-color="rgb(5.92041%, 67.967224%, 83.111572%)" offset="0.972656"/><stop stop-opacity="1" stop-color="rgb(5.543518%, 68.154907%, 83.099365%)" offset="0.976562"/><stop stop-opacity="1" stop-color="rgb(5.32074%, 68.37616%, 83.099365%)" offset="0.980469"/><stop stop-opacity="1" stop-color="rgb(5.099487%, 68.598938%, 83.099365%)" offset="0.984375"/><stop stop-opacity="1" stop-color="rgb(4.899597%, 68.798828%, 82.899475%)" offset="0.988281"/><stop stop-opacity="1" stop-color="rgb(4.699707%, 68.998718%, 82.699585%)" offset="0.992188"/><stop stop-opacity="1" stop-color="rgb(4.499817%, 69.198608%, 82.699585%)" offset="0.996094"/><stop stop-opacity="1" stop-color="rgb(4.299927%, 69.398499%, 82.699585%)" offset="1"/></linearGradient></defs><g clip-path="url(#clip-0)"><g clip-path="url(#clip-1)"><g clip-path="url(#clip-2)"><path fill="url(#linear-pattern-0)" d="M 0.484375 29.03125 L 29.515625 29.03125 L 29.515625 0 L 0.484375 0 Z M 0.484375 29.03125 " fill-rule="nonzero"/></g></g></g></svg>