<?xml version="1.0" encoding="UTF-8"?><svg xmlns="http://www.w3.org/2000/svg" xmlns:xlink="http://www.w3.org/1999/xlink" contentScriptType="text/ecmascript" width="30" zoomAndPan="magnify" contentStyleType="text/css" viewBox="0 0 30 30.000001" height="30.000001" preserveAspectRatio="xMidYMid meet" version="1.0"><defs><clipPath id="clip-0"><path d="M 0.882812 13 L 29.191406 13 L 29.191406 16 L 0.882812 16 Z M 0.882812 13 " clip-rule="nonzero"/></clipPath><clipPath id="clip-1"><path d="M 0.882812 4.703125 L 29.191406 4.703125 L 29.191406 8 L 0.882812 8 Z M 0.882812 4.703125 " clip-rule="nonzero"/></clipPath><clipPath id="clip-2"><path d="M 0.882812 21 L 29.191406 21 L 29.191406 24.300781 L 0.882812 24.300781 Z M 0.882812 21 " clip-rule="nonzero"/></clipPath></defs><g clip-path="url(#clip-0)"><path fill="rgb(100%, 100%, 100%)" d="M 27.949219 13.277344 L 2.121094 13.277344 C 1.445312 13.277344 0.894531 13.824219 0.894531 14.503906 C 0.894531 15.179688 1.445312 15.726562 2.121094 15.726562 L 27.949219 15.726562 C 28.628906 15.726562 29.179688 15.179688 29.179688 14.503906 C 29.179688 13.824219 28.628906 13.277344 27.949219 13.277344 Z M 27.949219 13.277344 " fill-opacity="1" fill-rule="nonzero"/></g><g clip-path="url(#clip-1)"><path fill="rgb(100%, 100%, 100%)" d="M 2.121094 7.152344 L 27.949219 7.152344 C 28.628906 7.152344 29.179688 6.605469 29.179688 5.929688 C 29.179688 5.25 28.628906 4.703125 27.949219 4.703125 L 2.121094 4.703125 C 1.445312 4.703125 0.894531 5.25 0.894531 5.929688 C 0.894531 6.605469 1.445312 7.152344 2.121094 7.152344 Z M 2.121094 7.152344 " fill-opacity="1" fill-rule="nonzero"/></g><g clip-path="url(#clip-2)"><path fill="rgb(100%, 100%, 100%)" d="M 27.949219 21.851562 L 2.121094 21.851562 C 1.445312 21.851562 0.894531 22.398438 0.894531 23.078125 C 0.894531 23.753906 1.445312 24.300781 2.121094 24.300781 L 27.949219 24.300781 C 28.628906 24.300781 29.179688 23.753906 29.179688 23.078125 C 29.179688 22.398438 28.628906 21.851562 27.949219 21.851562 Z M 27.949219 21.851562 " fill-opacity="1" fill-rule="nonzero"/></g></svg>